<mxfile host="app.diagrams.net" modified="2023-12-27T08:02:43.544Z" agent="Mozilla/5.0 (Windows NT 10.0; Win64; x64) AppleWebKit/537.36 (KHTML, like Gecko) Chrome/120.0.0.0 Safari/537.36 Edg/120.0.0.0" etag="RwEEhAosD_lgfQnbLpX4" version="22.1.12" type="github">
  <diagram name="第 1 页" id="7ROx7_aEjGXye-tok1HD">
    <mxGraphModel dx="1976" dy="626" grid="0" gridSize="10" guides="1" tooltips="1" connect="1" arrows="1" fold="1" page="1" pageScale="1" pageWidth="827" pageHeight="1169" math="0" shadow="0">
      <root>
        <mxCell id="0" />
        <mxCell id="1" parent="0" />
        <mxCell id="TWQ7pLuVDrdphybZ6b9E-17" value="" style="rounded=1;whiteSpace=wrap;html=1;strokeWidth=0.5;" vertex="1" parent="1">
          <mxGeometry x="-645.6700000000001" y="32.5" width="324.75" height="250" as="geometry" />
        </mxCell>
        <mxCell id="xHklydh9YZorjnQWgcOz-97" value="" style="ellipse;whiteSpace=wrap;html=1;dashed=1;" parent="1" vertex="1">
          <mxGeometry x="-595.75" y="417.69" width="190" height="190" as="geometry" />
        </mxCell>
        <mxCell id="xHklydh9YZorjnQWgcOz-77" value="" style="rounded=1;whiteSpace=wrap;html=1;dashed=1;" parent="1" vertex="1">
          <mxGeometry x="-390.25" y="589.69" width="90" height="70" as="geometry" />
        </mxCell>
        <mxCell id="xHklydh9YZorjnQWgcOz-49" value="" style="rounded=1;whiteSpace=wrap;html=1;dashed=1;" parent="1" vertex="1">
          <mxGeometry x="-708.25" y="589.69" width="90" height="70" as="geometry" />
        </mxCell>
        <mxCell id="2mS-3yC-kaPvrHnXkdwL-36" value="" style="shape=flexArrow;endArrow=classic;html=1;rounded=0;width=5.333333333333333;endSize=3;" parent="1" edge="1">
          <mxGeometry width="50" height="50" relative="1" as="geometry">
            <mxPoint x="-405.75" y="464.69" as="sourcePoint" />
            <mxPoint x="-345.75" y="464.69" as="targetPoint" />
          </mxGeometry>
        </mxCell>
        <mxCell id="SMYUAQdL8CAVwzWSyAeG-1" value="" style="shape=image;verticalLabelPosition=bottom;labelBackgroundColor=default;verticalAlign=top;aspect=fixed;imageAspect=0;image=data:image/png,iVBORw0KGgoAAAANSUhEUgAAAX0AAAD6CAYAAABNu5eFAAAgAElEQVR4Ae2dB3jUxtb3bdxtbOMGxjYY3DE2ptg0Y9O7AdOr6b2D6RB6MyUBQocECKGEToBQAwRICAkkgRQSAgnk5qbd5L659+b9bup7vufMWotW1u5qdyWtVnv8PPuojUajI/k3o/+cOeMB9EcWIAuQBcgCbmMBD7e5U7pRsgBZgCxAFgCCPr0EZAGyAFnAjSxA0Hejh023ShYgC5AFCPr0DpAFyAJkATeyAEHfjR423SpZgCxAFiDo0ztAFiALkAXcyAIEfTd62HSrZAGyAFmAoE/vAFmALEAWcCMLEPTd6GHTrZIFyAJkAYI+vQNkAbIAWcCNLEDQd6OHTbdKFiALkAUI+vQOkAXIAmQBN7IAQd+NHjbdKlmALEAWIOjTO0AWIAuQBdzIAgR9N3rYdKtkAbIAWYCgT+8AWYAsQBZwIwsQ9N3oYdOtkgXIAmQBgj69A2QBsgBZwI0sQNB3o4dNt0oWIAuQBQj69A6QBcgCZAE3sgBB340eNt0qWYAsQBYg6NM7QBYgC5AF3MgCBH03eth0q2QBsgBZgKBP7wBZgCxAFnAjCxD03ehh062SBcgCZAGCPr0DZAGyAFnAjSxA0Hejh023ShYgC5AFCPr0DpAFyAJkATeyAEHfjR423SpZgCxAFiDoK/gOnDhxApYtW0Y/iTYYMmQING3alOwl0V70bunnf2vdunUKksg0a4K+qT1k3UpOSQZfX18IrVCBfhJsUK5cOfD09ICw0BD6kQ3c5h3w9/ODoKAgWdljKTOCviXrOHDszp074OHhAev37YS7Pz2hnwQbTJw/k9ls7exx8H9P7tCPbOAW70CtGikwoH9/B2hj26kEfdvsJTn1okWLICAwAN7/x5cEfAnA5ypG/DJqlJXmFv/sVLFRxf7e2f2soXPkyBHJbHE0IUHfUQuaOT87Jwfadu1EwLcB+Aj+WvXrsX+CJ2+dIvBTS1/378CCySMhKCgQ/vrrLzMkkX83QV9+m8LDhw8ZuJZteY6gbyP0d5w8yGw3vn+h7v/hqaVPLX21pR3EHUFfAehjTzzq+dcf3SPo2wh9bO0Hh4ZAtZiKBH1q6ev6HXCGtEPQVwD4mGXLli0ht2VTAr4dwEfod+jZlVWap3au1vU/PbX03bul7wxph6CvAPT/8Y9/MGDNKllM0LcT+gj+cp6e0LVlY4I+tfZ1+w44Q9oh6CsA/V27djHon33/TYK+A9CPia8CoeUDdfsPT618927lO0vaIegrAP3u3btDVk5dAr4DwMeWPvnsuzcU9V4pOkvaIejLDP0//vgD/Pz8YPzcaQR9B6GP4CeffQK/XuHvLGmHoC8z9I8fP86knUNvnCPoywB9zmf/yxuvksxD2r5u3gFnSjsEfZmhP3ToUEhMTSbgywB8bOmTz77yLf1LB7bC8pkToFdBa2iZWx+mjSyCveuXOh2wbxzeCStnT4S+XdpBs4b1YMrw/rDnucVOL5ccXx7OlHYI+jJDP6piFAyeMIqgLxP0Efzks68M+P/7+U0YN7AX+zIN9veFvMQYKMyMh2qRFdi+7Mw0uHpoh1MgWzxiACtDkJ8PNE6Mge61qkFiRUO5MlMS4PzLm51SLjmAj3k4U9oh6MsI/cuXL7MX9YVXXyHoywh98tmXH/q/fPomJMXHgVe5cvBsYQP4c+1Qk9+bEwugUfVo9j7PHDtYVcBmpiay6y7vmG1SJizjnamF0CypMjs+sn93VcslF/CdLe0Q9GWE/tSpU6FS5WgCvozAx5Y+/shnX17wj+rfHfx8vOHsqHZlwMqvAPrWTYTICiHw3XsXVQEs18I/UNTcYrlGNEyFAD9feHjd9fp6nC3tEPRlhD7Gzu8+sC9BXwHok8++fNA/tWs9aylv6NbIIlgR/l8v7AsRQf4woGsHxaGPUhKGLhFr4fMrIlz/eXkRVA0PhsK2zRQvl1wtfC4fZ0s7BH2ZoE+x85WdL4B89uWD/twJw6ByhWCrwOdAO6dVFlSODFccrthpG+TnK7lcKwpyICjAX/FycbCWY6kFaYegLxP0KXa+stBHiYd89uUBf4fmudA+o7pkuB4a1IK1wL96+zVFAdunc1vITYqRXK6zI9uycn106bCi5ZID9lweWpB2CPoyQZ9i5ysPffLZlwf6ddJTYGiDFMlwvT6hgMH11qsvKQrXpvXrQI8s6ZXRB9MMQfku7t+iaLk4YMux1IK0Q9CXAfoUO1954GNLn3z25YH+0F5doE7VipKhj9o/au2/PbqlKFwnDe0LSVEVJJdrd798Vq4f715RtFxywB7z0Iq0Q9CXAfoUO18d6CP4yWffcfBvWDwDPD094bM5PSUBtl/dRKhTI1lxsO5au4hB/L3iQknlQg+exKoxipdLLuhrRdoh6MsAfYqdrx70yWffcej/5/4NiI+Nhs4ZVa3ClWtNI5Dlgp+lfGomV4cWydZ1/SODW7IKYuOSWaqUy1KZpR7TirRD0HcQ+hQ7Xz3gY0sff+Sz7zj4j2xbzaA5Ma8m/LZ6iCj8Xx7QDKKCA6Fvp9aqgfXsSxtZufrVS4R/rxgoWi4EvrdXOejcMk+1ckkFu7l0WpJ2CPoOQp9i56sPffLZdxz6CKfV86YwwKZWCoPVnevDpTHtAaWVF/vkQYea8exYz/Yt4Kd76mnmHVs0gfSUBPDz9YFqESGwsiAHzo9qB3endwX86kBJB/sXOrVoAkp7E5kDuD37tSTtEPQdhD7Fzlcf+uSzLw/0EV73LhyCNvkNwc/Hh8EUgYq/6MgwCA0pD39++a5qrWkEfvtmufDX49vw4I0T0Ll1UzbqlisTLhPiKoMrSTpcBaElaYeg7wD0KXa++sDnJB7y2ZcP/ByY3j93ADDiJteyb1S3FqyaO1kV6POBz5WHW2LFdGHfZvjh/ddVKQt3XbmWWpN2CPoOQJ9i5zsP+uSzLz/0hZA7tKUEKleMVLy1zwFfza8K4b0qua01aYeg7wD0KXa+86BPPvvKQx9BqHRrX+/ARxtqTdoh6DsAfYqd7zzok8++OtBXsrXvDsDXorRD0LcT+hQ737nAR+hzPvuvbl/lklqvkpKCnHkr0dp3B+DjM9CitEPQtxP6FDvf+dAnn311W/vYwTt/0giHwzG4C/C1Ku0Q9O2EPsXO1wb0yWdfefD//PE1iKtcCXy8vZk75xdvnrL7y8qdgK9VaYegbwf0KXa+NoCPLX3y2VcW+kumjYWgwAAI8PdnwPf384XrR1+UDP3dzy4CnOAcW73uBHwtSzsEfTugT7HztQN9BD/57CsL/nULpxsHbgUG+MMrm0skQz8jNQl8fLyZFxAOvNKrWyZCXvjTotcOhzsPboWW0ixAsfO1BX3y2S8LHCGAHN1+YfUCBn42kfr84jKAE8v/zJ4N4Ofnazzv6qHtks4Ty8vV9mlZ2kHKEfSlsZ6lotj52gI+tvTJZ1956CN0D29dxQA+bWSRJHi3a9YYUA7C8AleXuWgfFCgUepxNYjbWl6teu1wqCPoc5aQsKTY+dqDPoJfz3H2Pzh3EDC08Ymdz8KTm8pOWWgNbuf2boK+Xdox6GN4hJfWLYGj29eAsHP3nVN7GewxcBr+JgzpUyaNtWu58nEtSzuIOYK+BNhzSSh2vjahr0ef/aXTxzFg8gOO4XqNxHh4bc/zklrbSoBzwuA+4O/nx6DOL1vVmGg4tn0tKxfOzoVpFhePAYzfL16O9+Cvx3dU//3fk/fMlEeeLyatSzsEfY7mEpYUO1+bwMeWPv70EmcfI0zm59Q2SCnNM+HimPbwj6X94cGcnoCTlLdMiWHHcNCUOEzlgZcw76/fOQfNG+eUtuANsg0f+tx6rbRk9mUiPF+4DV+VLed/Lq+Dlf1yoGZ0efArjfhpyNcXQqMTocWIBXDr7ZsO3bfYdYVlc2Rb69IOQV8C7LkkFDtf29DXi88+xoqvHlWBwf7PtUNFJxJZ1ak+g++mpbMdAqAtcOvWvgX4+ZqHPQd9XEqJzmkC38+Pw0udKj4FfWASDJi9EA4d2A+PX9sKhzaMgFZBhrDPHr7psPZi2QpD6r2YXFfE60ZqPubSaV3aIehzRJewpNj52oa+Hnz2n18yk8H86JCWorDnVwLDG6ayePOPbryqOPi5+Wv5YLe2jpq/OTDifiN8Pz8IK2s9rUz8ao2D2/dNof5keTazC3fNsMFbLeYt6boKAN8VpB2CvgTYYxKKna9t4HMSj6v77NeukQxplcKsAh/h/89lRRAc4AfLZ06wG4B8ODZvlA3bS54R1eAb18uCcuU8TcDLAVhsiVLbnPFDLZbLAP2bcGlwGC/fOJhzoqx8c/+ZdF4aD9Aq9F1B2iHoS4Q+xc53Dei7ss/+b49uMbBt6NZIEvQR/HmJMdCrQJ45bBOqxrHRt95eXjCoRwGgpw5XKQQFGEbkigHe3D4cjMWdL7Zk0L8+B5r7lso2qOHHDIW3xFrgd9bCsOjSr4GIhrDTnLxz/xJ8cnw9YHRQ/F167Sz89LnpV4PxC0PsOg7ucwVph6AvEfoUO981oO/KPvu3Xn2JQR/nguXLOJbWi7KToFy5chAaXN7hH+bDB7iXlxckxsfBmIE9Tfbz01hajwyvYBX6QtnGo9Mq+K9Z8N6En25dgv+IHr8Jn63rANUjkqDz8Inw4pYS2DgiB6oHeoBHYCwULtlnPE8p6LuKtEPQlwh9ip3vGtB3ZZ99jGKJEMWJyS2Bnn+sfY04aJJdCxA4jv4qRoaxoGoYNgFnzJo+aiB8cvko/P7oHfD0lC7tcBVBTlZNq9A/3fupls/O62Zw+RT7MrC07+GG5hCb0AfO3zFt1f/37VVQFIFfEr4QO2Irq1CUgr6rSDsEfQnQp9j5rgN8hL4r++wnxcfBpPyakqFfObQ8zJ0wzCJcLcGSf6xWjWTo16WdiazDHc+qkWJTax+9fNCfnztfbInwPd6NJ+2gvGMX9LfChFAPyJ36EnwlkHLwuj8939zgFeSbBMtf43Ugi34xmFYaYuU2t89VpB2CvgToY+z8itGVmC8412FIS21XBK7qsz9leH8G1/enFVoF//KOBo8WnDTcHIhs2f/Lp2+azeeZicNtgj622rmBWubKIBv0L06ErFKf/tSp+8vew8050Lz0eJvV5596DckIfVeSdgj6EqBPsfO1DXixCthVffb/enwb0pOqswFY/7O8yCz4d/TKYxAuHjGgLORkhBkH7GfnFwNq/ELdn5Ny+EuscIf06my1XAj9D6YnmlYmFjV9M63wextgNHby+laEAVtEwlTcWwKdFYa+K0k7BH0r0KfY+a4HfKwEXNlnH6NTBvj5QpWwYDg4sDn8tnqIEf7fLe4Hs1pmMVDm1s2wClYO2o4uC9s2g54dW0NwUCBgpE0+5IXr6AWE8YKsXZNp6wf6QFgpkFk+5rx3+BXZ/Uvw+NYVCx2+gsrBeI0wmHpIGXnHlaQdgr4V6FPsfNeEPoLflX32ccBV17bNGVw9PT2gTlwEVI8MNcJ2UfEYq1C1Bl17jv/93fPMRZQDPUbP9C6dUQv3cf0LGGEzMy3Z4oQrDPpPXoUtjfidueJ++k/LehPOF4WAh28bOPyJAO78isG4fgWOdwthdgtrNAc+5A8KM6aRko/5NK4m7RD0rUCfYue7LvRd2WefgxzOUrVh8QzAAGYo5exdvxTuXznmFOBjmb65fYF19r51YjdgCIgRfbsC9kPgDFl3z79iLBdGBDXIQZ6QV7+OqL5vgP4d+O+5iZDN89X3qzURPhDpkMXr//fcOKbfRw02eOJwdjK3/HZHR4jy8AC/6CZG337uuubOsXW/q0k7BH0L0KfY+a4LfGzpu7LPvq3gkSv9Pz+8CoN7dgKUc4R5fnb1OFQICbbqlcOdl5H6VK/H8MroHbRt5Txjvnz4fntkJDRGn/pSqScorQccfI3nk3//FLy5uhBSfT0gqN5Us5UCd21ccpWJX0IhHL/xtKXOvy4/vb3rribtEPQtQJ9i57s29BH85UNDoFpMRSNo7P3HdpfzFkwZxcD+4pqFJja7fWYfVIqKYAHXVsySFvZhx6pnTEIwr5472STPMvC9fxQOcgOq+Do/t46DrGZvF3XLFD6f/56bA20ifCG2xVR4695T4GO6Mtd1QOZxRWmHoG8B+hQ73/Wh78o++0KQqbWNrX3+ta68sh2CywexWbBwknScOIV/3NJ6SHAQa73jF8KM0YNMzjMP3xvw/c2j8OYuQyiFQ1u2wp2bvFa/FUgbgB8GDSdthm9F0pq/rmnlYOm+uGOuKO0Q9M1An2Lnuz7wsaWPP1f12efA4szlyReeY9q8t7cXgzdOf/j6wW0m8LZUPgwGhy18jLiJk6zwwS8nfLky/PfcVGgcHA+9NpSN8Hm8my90XCuvn74rSjsEfTPQp9j5+oG+q/rscyBTann5le1MuxdOdSi83tmXNkJEWCgL0YDhGGzpSP7542vGCkIIfrmhz4BfJRMWHrhivObTe9kNc2Lkddl0VWmHoG8G+hQ7Xz/Qd2Wf/afQsl16sHQuAgsll9rpqSCUc4TnoacOdrCirIMzZ/37k+siUJVWPvTw4Vr8ckKfAT/QA/yCK0J8bOWyv4gA8PBoCDvflU/Td1Vph6AvAn2Kna8f4HMSjyv77AshLNc2hkmwBny8Vs+OrWDS0L52g15YXiP4x5hq/MJ0krdvzoc2PJdPzgOozDJiAFyVsSPXVaUdgr4I9Cl2vv6grweffckQFOm8tPdcrpX/+OYZ2aCPZeGDH1v8Dv2evAO/P3obfrP2++LdUs8dxydGd2Vph6AvAn2Kna8/6Lu7zz626lHDtxX+crfy+dc3gl/g1cNPo9V1V5Z2CPoi0KfY+fqDvjv77E8e1o9p8uiDbwtElWrl88vgquB3ZWmHoC+Avpqx89/55oEmwzW/8/fPNFkuTp+3d+muPvsYIVM42IoPXv76H1+8a6wYlGzl868pBfy/PnzbWC7+uc5Yd3Vph6AvgL7SsfOnLJwDua2aQUTFKNb6SqqRCp16d4fdZ444FbQzVyyEpu1aQVTlSqxcCanJ0LFnIWw7ts+p5bIX8ObOI5/9sl42GCu/dZP6EFkhhM2QVTcjDTq1ymfvgdxavjlIi4F/8bQx0C6/IVSKMEycjp5GGCICp5U0l48a+11d2iHoC6CvVOz8Q1fPQnZeI/aPVK1RHagzsBDypg2FGp1bgm+gYdLpkcUTVAfsibcvs0oIPR2qNsiC2v07Q/704ZDetTXEZBpmSxo0fqTq5TIHbUf3691nH71xsCUqBX5XD+2A7Mw09k52zqwO89vWgfVdG8KQ+ilQMSSQ7Z87YbikvKRcz1oaDvwDunaE3Hq12PU7ZsTDvNa14flujWB4w1QI9PUpLZc8s4VZK5PYcVeXdgj6POgrFTv/0sfvQPmQYIhMrAod1s6Ckdf2lfnVG9Kdvcy1G2SrBtg3v/wIoqIrQXiVGGi7orhMmbCc9Uf1ZuVKzaihWrkcBbul8zmf/TUzx6oGMzFwKLEPYV8tLob53lvL//1zB9hzbZwYA29N6mSM18+ff3dyfk2WpkeHlqrZ6vSu9YChpBOjQuHy2A6i5eLmE2iT31C1cnH21IO0Q9DnQZ+Lnf/Bj49lBVybrgUQFF4BBp7aKgpWrhJoMmUw+yd7bu92Wa9vDoJdB/QG3wB/6HtoncVyNZszmpVr+ZZ1qpTLXHnl2u/j6wONstJUBwYHDqWWqNs3a1gPrI2wxeu3aFQPMmKjRKHKB//8NnXYs8cQz0qVm59v55Z5UC2yAvx7xUCLZSvplMPKdW7vJlXKxZVRD9IOQZ8HfSVi5285/BJ7OZvPG2MRrBz4q+fWg7jq8YrDdc/ZY6xcKDFx17a0TGrVGMKjIhUvl1xgt5SPu/vsY+WAct7ZkW0tgpWDf/34SpCXk6U4XA9vXcXKdXhwC0nlapESB7XTkhQvFwd8XOpB2iHol0Jfqdj5k+bPAt/AAElgRehyreprD+8qCtjZq5awf7Dhr++RVLY2y6aw9Oc+eEvRclmCtVzH3N1nf+KQPpBSKUwSWBH8OAF7+UB/xeE6b8JwiK5QXnK5UOfHykstzx69SDsE/VLoKxU7v23XThBXu4YksCL0e+xeyV7kHScOKArXbkV9oGJKNcnlQgkI/8HUkp7kAry5fFw9zj66YWLsHKmdtvzWKrbae9WuLhmu+EWAz/7j148oCv6OLZpAu5rVJJfrxoQCVq6bJ/YoWi7OdnqRdgj6pdBXKnY+Qj+mVppkuPbYtUIV6Hcf2Ncu6K97eYeilZE5SMu935V99tFDByGMg66kxM7hoMUt83NqQ08boP9aKfQ/uXxUUbgWtMyDtjWqSob+9VLov31SHRdOvUg7BH0A+PHHH9k/0aySxbIDzSDv+EuGPifvXH90T/ay8ME5x1Z5Z6l+5B3ODq7ss28P7DnoY/C05IoVJMN1WcdsCA4MUBT4WDYm74QGSS4XJ+/89uiW4mXTk7RD0AcAJWPnGzty50rryK3WuC7EJVRTFPgIvZfOHWcVXZOpQyRVSMktG0OYTjpyOejr3Wefg7xwuWvtIvbsz4xoIwmwOfEVAb8OhPnIvX1k22pWrkODpHXkNkuOVa0jV0/SDkEfAJSOnd+hRxcIrBACRSe3WARs7uRB7KVXS0JBicfbzxf6vmLZZbPprJGsXCu2bVC8MuKArMbSFXz2sUWPMo6tcXOsAblVbg6kVw63Cn0cGIVS0o1j6rhs4oTsVcOD4eflRRbLtqLA4LJ5/uXNildGaEs9STtuD301Yue//sm7EBpWAcKrxUH7VTNEwV93UFf2z5VYI1U1sL715BOoGFMZQmMqAnrniLls5gzvycqFGrgaIFb7Glr32UcIYoctRsm0BnJbjn9w7iB7rvWrRsG18R3LAPa31UNgYp5hcNb8SSNkvbalcn5+7SQE+PlCVmwkXBzTvky50JtoevNMVvbiEQNUKZfepB23h75asfOPXD8PjZrlsZc1LicTavfvBLlTBkNax2bg4+/H9vcZPgjiExOg74jBqgH21XeuQKPmhnLF1qsJWX0LoEkxhodoAZVqJLJyDZ00RrXyqA19tX32f7p3BS4d2Mog/uVbp61CC4EjZbCVJZCaO4YDrhpkGcDeoUYVmNu6Nqzt0gCKspMgtWIF9uxXz5titYzm8rd3/zun9jI5Cb8w2qXFweyWWbCua0MYXD8ZAny8WbmWTh+nWrn0Ju24PfTVjp1fvHgeC2wWWRrYLCmjBhT26wU4WAqBd+rdq6qDf+jksYCB31p0aAtRsZXZP1VCjVTo2Lsb7Dx5ULfAR3ur5bOPk4nXyTDEuUGYcb+KkeGwccks1QAmBmKUjto1awzRERXAx9sLcmqmwMh+3eDDi2UnFxc7X6l9y2aMB3TjjIkMh3LlPKFeejIM610I755+WVV76U3acXvoOzN2/p3vHokCVU3wX/3sPUCJgw/3298+FC2X2q1wta6ntM/+jNGGvpr8vDzYvXs33L17F7788ks4duwYjBxp6C9JT0mAU7vWy67dKwVktfPlh3xW89p6lHbcGvpc7PwXTx3SHOTUAj+28vPbttTc/asFfLyOkj77m5fNZq36ZcuW4f+a6N/Ro0ehXLly4OPjLSlYmprQc/dr6VHawZfQQ/RNdIOdSsfOdxRcSoNfrJXvaJld9XwlfPZRiw8M8Ifhw4ZZ/W9as2YNqxy2LJ9jVbrAfgF3h7Fa969Hacetoa9U7Hw5wack+KmV/3RaSCV89hcVj4HwsDD417/+ZRX6mCA+Ph5yzfjDf3P7AmxdMRda5zVkurZa0HPn6+hV2nFb6CsVO19O4HN5yQn+K5+9x6QcauU/BT7aWQmf/a5tm0PLFs0lAR8TrVq1CgIDno58xVmr1i+aDk0b1DV2/KIMhCNq3RnGat27XqUdt4W+UrHzOVDLvZQL/KNnTAZ0wew3cojba/nCZySnzz4OqoqJjoJp06ZJhv6FCxcY3KeNKoK8+oY49ujl4+3tZQL9mimJMGFwH9bpu2HxDHhlcwngLFj3rxyD//noDaoQnpSdEtKeikKv0o7bQl+J2PlCiMi9LQb+W19/alMnLEbX9PXzZRBp370zcC1/ucvqivnZ6rOPn/84aEoYBwf344AqBHZ6erpk6O/YsYOd8+9PrjNf/vq1M9g2uityLp6enp5QLa4y1EiqDhUjwsHLq5zxGJemfFAgpCbEQ4vGOTCwewHMHjeESUNnX9rIKob/fn6TKgYrFYOepR23hL5SsfPVAB0f/Aj8nCaNwJbgbJiegwO2bNsUFthUaahxj866hpjP/uVXtgOGMRYOkMJtzo54XNiSxMqgZ8dWkFC9umTojxs3DmokJ5jkhdeZO2EYRISFGq+Hkg//et+/dwnuXTgEF/Zthr3rl0LJnElMAureviU0qJMBcaVjQrjy4jI2uiLkN6gLQ3t1AfSHx6+FO6/th399ct0kb/513Gldz9KOW0Jfqdj5asEKwV81oTpEVowCL29vmDBvumRw44hf/Kf39fODgl7dJJ+n1r054zrTl82HAaOHwQuvvgJ8n31swaOtsNUuFvsGKwRhZcAH49HtBo+czZs3WwX/vXv32LUwzg4/D/76ztXzoVHdWoBL/n4p6zjRyKdXjgHGqtm2ch7MGT8UehW0hroZaRBSPshYoeD9xsdWZoO1sCzoTYTSEVYsUq6jlzR6lnbcEvpKxc5XC1jv/P0zSMusCd6lQ9JDKoRKhrd/QAD4+PhA76EDJZ+j1n0pdZ0bX3wIY2ZOYSOOhZPA4LHg0BCIqRoHizeuKeOzj+AXyje2gG1E364QEBAAp0+fNgv+X3/9FVq3asVa+X9++a5VuGJlY0sZpKRF76BrR16AHauegWkjiwBj2yfGx5lUBvjFgCN3p48aCLufXcS+DH5/9I7sZZFSXiXT6F3acTvoKxk7Xylo8fNFSQdj86C26+fvz/4p/fz9YP5zK13RvjsAACAASURBVK1C/J1vHrD0vYYWWU3Lv6YrrCO8u/TtCamZ6WVm98JjuD87tyEDu7X7kdNnH+WS9GTD11VJSQn89ttvJvA/efIkJCUlgZeXF5zZs0FzAP1/D26y2blQNpo5ZjALi1A1JtqkMqidngpDenVmnkZYcfzn/g3N3YctlYTepR23g76SsfOtwQSP4xyzK7dvgCETR0P77l1g8oLZsPXoyzZD+I3PP4Bxs4sBW/kIDJR6+NfHOP44gQvO3IXeOqt2boQ9Z48Cxv7hp9PqOoJaWDYO3tgyF2uxI/TxhzKN8FxbtpXw2Z86YoARlKmpKZCYmADBwYbO3g4tmoDSs1LZAj0paf/xwWW48sp2BnoEfp2aqcb7Q4kIPYyKunVkcYVun9nnUpWA3qUdt4O+0rHzLcFlxvIFUK7U2yIkOgpia6UZI2zWbVQf9l961S5YzVuzDBLTUhgI97x2FNJr12L/gOW8vJh2z30RePv4wNzVS+26hqX7sucYAvzQ1bNlyoL7UWpBcKDOLswb9+Hv7PtvljkmTGvvthI++wjSt07sZhDMSE2EoMAAWD5zAqBHjRTIukIanMEKpy7EfoBR/btDdq10Y0UQHBQIrfMawDMTh8Pp3Rvgx7vaHFXMSTsYGkPPf24ThkGN2PnmQJPbqhn7B6jVvS30O7LBJHZ9wfq5EJVSjR13JKxy16I+LA9fX4NLJoJT7BcdG6MYMPn3j1DHFrkYoLG1jmVDrZ1/Dq6jto6dq2LnCdMqtS2nz74Q2NhBipKIcL8et1Hqubh/CyyZNpb1E0SGG0I247PPTEsC7PPAjumPLh3WhD3cQdpxq5a+WrHzhSBCSQVf8npDupnAXjhpSUr7fAgMLg8XPny7DAiFeQq30aMHO3Z9rACfqwRmr1pi8zWE18RtlFLEAI0tdktgx8oAz8V0Yvk6e5+tPvu2AtuRzmFbr6W19BiyGTuMh/cpZDIQ905GRYRBp1b5gLHycc6BXz59U/WKwB2kHbeC/rBhwyAxNVlVyJx4+zIDflavDhaBjxXAoDPbISgyDNp06VimjOixYwmEuS2bAXbocv9A1pZYQWD/gqU8uWPY8uZcGrl9uERg43UQ7mItdmzpi0k4/Dy0ui7ms681eOqlPNg/gGGlcTxCy9z6TPri3t+crJps9PHBTSvh2zsXFa0E3EXacSvoY+z8QeNHSgKdXDB65tkVDIxDzr9oFfoI/kYTisDb27tMGRH6FcLDGHz3XTxpchyPcf8ktiyXb1lnzEeqS6OYXbTaWhcrqy37+D77egGsq9wHzp6FISb6F7Y3cR1FWQxjD+EYCKws5Lwfd5F23Ab6zoqdj+6REQlVJAEfod9pg0EKwknI979+yvjb/dpRI9gx6BZ+sYyfOx1ev3+bzbplC+wxLeZRNHYEgz5CG90Zpbo02gJOV06rZJx9OWHlDnk9vP4qvLB6AQzqUQDV4mKM/wvYWYxz5Z584TnA8BWO2MJdpB23gb6zYufjvLjVmtSTDP2ee1ezFzqwfBBr2WPrHn84sTof7Oimidu169djI2v5x6SuN2/fxtjSd2U4K1l2OX32OSChjPDimoUOAYrLy12XOLoYRxbjlwA/zETThvVg4dTRbKCZLbZxJ2nHbaDvrNj56I+P7pnCTltz2+1WTmMwP337mgmQOQkHO2rRNx+jZHJ6OU66LhX0XDovby/AiJtKAlMPeSvhs4/eO9hatQVKlNZy5Ez0/sGYRIVtmwG6h+J7HhpcHrq1awHPL5lpdRyEO0k7bgF9Z8bOL9nxPHsBe+1dJQn8MXXSobxIWAWEfrtunWH9vp2ioLbmpsnBnr/sPqgvGxzWY3B/NoAL3UU79e4OHXp0AeyL0AO0Hb0HJXz23cll01mVFcYLQpA3yaltbBBhWInRA3qw/gChFORO0o5bQN+ZsfNx8vOqidWhSsMsq9Av3LKIvaAjiyeUAS5C3xLAsIOaD3RL6xikrWpCNZbfsMnjWEgH7DzmQi7juTjJiqXrudMxJXz2LQVqcxYo9XpdnGMAO37HDuwJSdWqGP9PWjVpACtnT4QDmwzOFnofkIWw5/50PzjL2bHzN+x7gb1otft3Ngv+bjuWgm9QAKRmZdgN24SUJAZwS8DnjvFDP6BLJrcfl1gpdB3QG57f/6LdZdFTpaC0z75eYavV+8JxAhgOu32zXOMENRjLCl26jxw5Av/7v//LsVG3S11DXyux88fPNWj1UcnVoPm8MdBzTwkMPruTeevkDO/JoJtcswbsPX/CbtDiYKdqyYkmAOfDnAsBgfF+hFDG8A0VK0ezAV4Dx42A/qOGQuW4GNaBXNi/l1tXAOSzb1lP1yrcpZQLQ05XqxILaampkJaWZvzfadeuHWAI9s8++0yX4Nc19LUUOx9dMOs1bmB8sTggo7SCQdGEILZ3u3mHNswlk8ufW+K1D71xzux1UNLJa93cRNrBikSuCgCv3Xf4IMiqXw/8AwOgSkI1FhBuVslis2Wy1wZynnf9i3vs6wdbg5FhIZCeUAXy62VAz7Z5MGlgN3h29jg4tXM1PLp2gjpnrcxIJQXEaqYReu189NFHsGbNGmjVqpXx/zQjI4NNe3nlyhUbK4C/4I/ff4ff//gT/vrrL5Pfn3/8Dr///if8Hz/Hv/6A33//Hf74k5/2T5bHnyYJ+SfZt65r6Gsxdj5GyNx2bB8sen610QNHLkjNXLEQMLDbBz8+hoNXzsDC9atgx4kDNs2uZa4sjlQA+HWBlY+Xjw+ktGoMDUb3hYwebSG6liE6Y16bFnDy1hXNwX/t3m0QEV0RPMt5QmRUJYivnggVwsLZBOY+3t5GMHAVq4+3F0SJVAzPzZ1grBgQNDizlppwo2uJf61Y8tr5+eef4eDBgzB48GCoVKkSe9ZRUVFs+/DhwxJkoBNQZCb+FXtfskrgIz6zTxSVeZ8M71UWlJgk5J9k37puoe/qsfPNwdfcfpSQsDW6ZtcWxeFpSwWAg8Dw5a3Tp0C0T6PN8qkQUCEYMCqolubsHTp9AisTRilduWYjPP7mX2V+nz78Fl7afwymz14AXXv0gZwGja1WDDjnrVe5cmW+GPgVA0FaHNJy28UWr52rV6/CjBkzoGbNmux9xv+1goIC2LJlC3z99dci9P0FfnjyBJ48eQL3XymCKF4FEJy3Eq4/+Sf8yj/rlx/gvd09oBKm80uFYZtOw1v38fyv4Z8mCfkn2beuW+g7O3a+OTgrsb//6KFsUhWUil46d1xx6PPvwVIFsPXIXvYP0mBMX1Hgc+MV+h5eD/7BQdCxV1dVy86/D/56i8IOrNyRURXh/Y8fl4G9WAVgbp+wYqgUXRl8ff0c/mKQG4Dulp9Q2rEFnygDrVq1Cpo2bcreE2zU5Ofns333798XyepXuFuSDX488EcVnYDv+Cl/vQsl2X4M+BMumBzhp5JlXbfQd2bsfD5AlF7v2r83BAQaBqTgyyc1kJoS5RJWADiQLK5ehkXgc+BvNnsU+wfa9Moep4Ef9fvU2hmsHBmZtR2CvblKAPe/dvGGSd7CikHKF4OYlDR5UHegLwZpXwmWpB1byPrtt9/C9u3boVOnTsYKoE6dOoDzHpv+fQcniqKMaTw8/CC75K6htf/rXdjaBo9FQdEJZYGPZdIl9J0ZO18JmJrLE2P7GHS/p7Hz3/v+kXlo/vhE9Bh2suJAMtTeuR9uW+r4NVcmbv/mQ3tY2fJnDJcEfYS/X1AgTHxmhmgZuXyVWvL1+249+plA2RLA1TpGFYM0mEv9YrFF2jGFt/mtX375BQ4cOABFRUXiiYxw5/5fEfL3SysDXiUgfrZse3UJfWfFzlcKSJby3XfhpNFbp3xIsGVgCqCPYK9SPd5YcWDLvHGLpib7atauZRf8d585wvLtun2JZOjH1q4hGlra0v3LcUyKfq8W3B25DlUM0ioGR6Qdh8nLyTg8qcek1e/wBaxnoEvoOyN2vhzwsSePoZPHQn7blnDq9htgddLzUuijBxHOn8t9JSDYEdL86yP8ueNYMfCPSVlHqQfP7/7iCunQr1cTWnRsa/O1pJTHXBo59XtHgK3WuVQx3GEhGoKCApkbpXVEKpDiuxNQFMW19j3AI7gHvKK8qmO8EV1C3xmx881BRcn96FuPYQJ2njwoDZSl0OcDH1v3WAkIy8kBn1sKKwVheuE2N8kKavWcbm9tGRBSnk34LsxLiW219HshzFHPP3jkjObkI3459V4xKCHtGIkqceVv21sYG1X4P+aXXQJ3ZfbSMVcU3UHfWbHzlQCTtTy5Vr61dMbjPz6BjQd3m7xsw6eMLwN8TI+tfw74WDEY8/hJvF9A7DjGHZIaWrr1kknsehi2QiwvOfc5U78fOmIsxFWpqmno8ysAc+uuWjE4VdoppfAvd5ZBtp8H+MXGmrhylvHoMUdtB/frDvrOip0vJ5Sk5GVzKx9h/eMTE1kHoW6uBX/mznUmF6FkZK1DF78UsPIQVg5rd29lIG9SPNRia3/ohRdZCOqm7VopDnxn6/cI/fSamS4PfXOVAX+/XBUDjnyWyytJLq8de7n7690SBnyPqCI48Z3QlVOdzlzdQd9ZsfOlgFrONDa38kuhz7XeuaU56FsrK+ftg5UCwp7Lj3/evZ++gu4D+7Jj9Uf2FgV/500LIDo9CXz8fFm/BP98ude1ot8LXTb5oHS3dbUrBqdKO5yWH9UV9j7gtByhK6fybpu6gr4zY+fLDSh+fm//7T5rke85ewwwzLJdrfyfnsDFD28Z4SwGaf41ra0j9J9Zu5yVCysOsfwQ+pjP4AkGH3zf8oGQ2bMdNJszGnJG9IKEZvXZeTXr1WbTPlq7pr3HldLvr7z5HuzccxCuv33PLVruzqqQRCuGagk2D3DrX9CSvW9OCaP83XWYwwZfZUOJULwXevT4iaSx99NC5DxdQd+ZsfPtBZKl81Dfrp6aZAQqB9awiHDIrFfbZilETujzy20N+ph2+/H9zB0zrtRFNCi4PNRt3EDxGbzk1u8//eI76D9wKASHPP26wecSFh4Bo8ZOIviLhKtQo7KQWjHgFJgYAE29v1/hnw8vGYDv4QF5m74UvzT3FcC5cjL5Rzypo3t1BX1nx87ng9DR9T7DBjLYxzesDTjACWPuo8973rRhEJ5gmAyiQX6uTeB/5+vPylQg1vR6KfchBfr8fK4/umdTufnn2rIut36/7YWXIa5KPHh7+0D77mNg+JTnYPKCPTBk4hpISTd8tSQmpcDK1RsI/k6Cv6UKpl52Aygs7OooM6Wd/1EJZHEAFyyzykRQ+whKsngunIL0HlklpiEbpJXAbCrdQF8rsfNtgZK5tCOnTWRwbjyxSFQHR9fHhmP7sTQT5k2XDtAfn5gMvMIWqr2aPr/stkKff65S63Lr9zdvfwJB5YMho24+zC45Bmt3v1vmN3XRy5Ccng0hoRXgk4ffioLfFVw2LYHTVY+999EX7P8FA6Sp8vfVaVg0YgRMKdkFGJXT8NsE80eMgEWnvxIU4Ss4vWgEjJhSAruMafGcXVAyZQSMWHQafhac4cimbqCvpdj5joAMJzRBGNcb0s0s8Dl/96x+BSztgcunpYH/xyfMy4aTiXBpzmWTfw/YWYuunvx9/HUtQV8p/b59x0KoEBYFSze9Xgb2/Apgzqrj4O3jC/2KhohCXy8um64G//WbdrL/lUePHjnCS12cqxvoazF2Ph+MUtcLenUD30B/q8DnwO/t6ws9BvUzC2ST6/74hA3E4nvb4LrY4CzuPOywxcoBl9w+4VIr0Jdbv+fAduHK28wGA0YvtQh8Dv7dimaw9HfuPSwDfoJ+2RDVnJ2VXHbv1Q8yM2vpAtqO3oQuoK+n2PkJaSmQ3qWlZOintMuDGrUzzQLZBNClI3L5kEag4whdMfCj3o+VAg7UMslHMECLnx8/Hee9w9+n1Lrc+j0fQM89v51BfPHGS5KgP2P5IZYeY+3z8+HWyWVTffBXqhTNZsByFJh6OF8X0NdL7PxbX3/KYIGdtVxL3tqy0YQi8PL2sghlI2h5AdcQ6Pxga7iOUg8XZZML1YAxeMQqBGOePz1h/QKcZMTfrxb05dbvOThzy+GjxkPF6DhJwOda+/7+gTBz7iJR6HP50lId+J84/Tr7v7pw4YIemO3wPegC+nqKnY/umFL0fK4yyOpbAFGxlW2GPgdnlG1Qs0e4c7IPtuwR+pZ0fO58XDqrpa+Ufi+E8dz5S8HH108y9JdsMkDm2Q3bCPoa8OKZOn0uBAUFOQxLvWTg8tDXW+z8Rs3zIT63ruSWflx2JjRt39pu6PPhbe+6M6CvlH4vBD5u7z90irUUpy3ZLwn8o2dsZunPvf4WQV8D0M9p0Eg9V00XqBlcHvp6i50/bs40BoxOG+ZZBX+HNTNZ2qmL5roV9JXU78Wgf//RdxAWFgF1G7WTBP30rFyIr5YoCvwbtz7UfJRNMRu46j7VXTUJ+spbQI+x82s3yIZKaQkw5NwLZsE/6PQ2CK8WB/VtGaDF0/TtbdWLnadmS19p/d4c3NauNwSPy2/TxyL4C/sVs4r4hT2viEJ/cvFsXUTZNGcnre0nV82yDHb5lj7GzsfYLmIwctV9+y6eZBOdh0RHQqvFk8qAv8X8cRAUEQaB5YOsRsA0sYEC0McOYez85TpysR+A6/iVsyNXLf3eErS6dO3J7rNx8+5l/PXnrj4BdRq0YscHDBouCnzMm1w21em85Z4juWrqDPp6jp2PoY1bdGjLIBJYIQRQu6+SnQE40QgCtmXnDnD+3k3bKjsZoY8dwNj5a+mHoZxNKh2Bq6fUY2rq9xwszC0XLVsNPj6+7BnEVEmC8KhYqBRTnW17enpaDcFw79OvykyMbu5aauy/eec+bH9xH0wungUDh4yAkrXPw+nz18xWWmqUSc5rkKumzqDvDrHz1728gwUla96+DTTr0AbGzpoKakw0IhXISqdTW7+XAhyMrrl0xbPQb8BgqFO3PhQNHg4r12yAOvVyYMbsBS4DzHkLlrHKChsRIaHhEB1rqLxwu6BzV8AKQYo9tJqGXDXLAh/3uLS84y6x85UGq1bzd5Z+by/EduzaD+HhEfDg8Q+ah2WTfMN0fU3b9oG5a1419lMs3/oG9B+9BEIrRIK3tzcsL1mn+Xsx97zQVTMwMFCcfG6812Whr9fY+VoFsJrlQv0+pXYGa4VmZNZ2KejUb5ir+db+pKkGr6/hU9cZYc8NKuOWOPo4pWZ9SEpOcyn78ysActUUr9lcFvp6i52vJlS1fC2jfu/pCd169HM54Fhr7Ttb0z926iKrTNt0GW4W+Bz4i5fsZ2lxRDIfpq6wTq6a4sDHvS4LfT3FztcyhNUsG1+/X+HCMekttfad7bJZPGMeBJUPsQp8DvzN2g1gcwi4Auj5ZSRXTZ1BX0+x89WEqpav5Wr6PR8wwnVha//IyfPGlrKzXTbbdegEqRn1JUO//6glrLX/3oePjPcgvF8tbpOrps6gz8XOv/HFh7K4BGoZhnovmyvr95Zgh639Nu06slbyxq27jcB09ohcnNkrtmqKZOgPGl/CoH/01QvGe7B031o5Rq6aOoO+XmLn6x3o1u7P1fV7c4BbtvI5CA2tAOXKebHfMwuXawaYOMCsenKWZOj3GjqPQf/jz7/RzD2Yszu3n1w1zQMfj7icpq+n2PnWoKjn43rR7znQ8Jc9evVj7o7cKOWRYyY6HZi79h6GPv0GMRfGcuXKAbpmcrq9pWVM1RRISEpxevn59rW2Tq6aOoO+XmLn6xno1u5NT/q9OQCNGD0BfH0NI3fbd+ziFGhyoMexA5Urx8DgoaNg/cad4O/vDw2bdbUK/ZHTDLOmzZ632CnlN2dba/vJVVNn0NdT7HxrcNTbcb3q9+YghJ46Xl5eUK3604ib6LKJur65cxzdLwb6A4dPm1wPRxPjV0hh/2Kz4J80fzdUjkuERo3zTc51tHxKn0+umpaB73Lyjt5i5+sN6pbuR6/6vTWIYaiD2LgqRnDOX7RC9iibUkAvLCeGjkDw16iVCzhIa8G6s1Cy802Y9MwuaNt1FDtWMyMLzl5601h2YR5a3CZXTZ1BX2+x8y1BUk/H1NTvcZarwm69ICk5lXnOoIsi+qZ/9uX3ToMXjjlYuHQVdOvRByqEhbPWf+u2HQG/BLDlbwmeHz/4OwuCJkxjD+iFeezYfQCqxD+Nt8P1QeBy3MRii+US5qWVbXLV1Bn09Rg7X09wF7sXtfR79Niol92AtVATUmpBbsse0LRdf0iqkc0gW6VKPGze8ZLqIMOWcoNGuaxcAQGBbMnB1cvLG6KiKsK6jdtFy4XRLuOrJUDjXIPEIgfoxeB85cYd2Lh1FyxZvhZwxK4zK0ix8tmyj1w1dQZ9PcbOFwOlHvapqd9zLnpVq9eAsbO2ldGpZ648AqkZDRlwMe6MLRBxJO35yzfZNX18fExgz0GfvxwybLRJuZ7f8iJgpcB1BoeFhRs7Y4UavSNl1NO53HtAE6BbBr/LuGzqOXa+HiDPvwe19fu69epDtcSaZWAvdEXEVn9YeASoNboUW+h+fn5WgY/w9/Pzh+tv32Pg7923yOQc7AzWgtun1isIctW0DHvuqMtA3x1i5/PB6arraur3CKE5zxjCBIybvd0q9LGzMqh8KPTo3d+kVW0vzHDCEZw/V+x8DEnMb8lbW8dWPfY/YH+Ep2c5QF96/jn5zVqIXkfs2u66D101u3Qp5NhGSzMWcBnoU+x8eWahUrIyUUu/50OtU5fukJRWxyrwuVY/TnWYnFJDFoAOGzmOwRkrkb0HjpvkiROsSJF1+GCvWCnaJI+HT36Ejz77Gm7f/Zx9BXzwyWOT43w7uPv6+x9/ySrJLVu2mEEd7eYs4BLQ52Lnu9OMUUrCWe681dTvhXBLSEyGJq16SYZ+z8FzGBzQo2fm3EUO/bBlyUEbZRzslMU+g9evvQsZmVnGY1waKUsEvPAeadv6vLrkqskh3frSJaBPsfO128pXW78XAjAmNg6adxgoGfr9Ri5iMMZgaDgloCO/hMQkI9hxlCtCvUlec8BOWAxsJgXywjScri+8T9q2DH501czIyLROPErhGrF3KHa+NqGvtn4vBj70d0/LbCgZ+vlt+wG6b4rlZes+lHc8PT0BvzamTJttMqds1+69wddXWicuB/7g4BBZymXrfeghPblqSq/NNN/Sp9j52gS+M/R7MThNLp4Fvr7+MGf1CUngj6maDG07dJYFrgh9cyGH+ZOOc1C3tEQPHZSE2rbvBPUbNobklDRISEiC6MoxEBgYBNk5DWUps5gNXX0fuWpKBz6m1Dz0KXa+tqDvTP1eDE4Y8rdyTBxk1G1mFfrN2xtcIXHQk1hecu778u8/Q2JSsk0Sz6HjZ+HzJ/+AzFp1wJvn24+++sUz5yleZjnvX828yFVTZ9Cn2Pnagb6z9XtzINm8/SUG1+zcjrD4+Yui8G/RcRBLM2P2AtXguWffUcnQF4Y9wC8Y4ZdBq9btYfVzm6yGbjBnJ73uJ1dNHUGfYudrB/ha0O8tQQthGBJSAYJDw5k3D07+0X/0EmjWfgCbKQoBOn3WfNWA/+rZq9CrTxGsXb8VwsLDoZyXVxmIo6SD5Zo4ZYZoudZt3MH6DFLT0uHi1VswbeYzkFmrNjtH7grg6lvvA8okDx7/IFoWS7Z35jFy1bQN+JqXdyh2vjagrxX93hpcbr3/KWAHKnascq3kmNgq0KZdAagh6WD5sHXftHkrdv2xE6YygKJ/PVYA1ROeevuge2ezFq3N9glw93rytSuAQeS4bVzKVQG88dYH0KpNB1ZZcvbCZVp6BqALJP+aWl0nV02dQZ9i5zsX+lrT720BD0anvHPvoWrgenbDNtb5iv76XLycm3ful7k+juB994MHZfZburcPP/2b2fTmKoC795+YPQevhcHVfP38ICIqBtp1Gw3DJj8LE595EboPnAm16xsqrUa5eRbzsFRmtY6Rq6aOoE+x850LfK3q92rBxJbroCSSXb+hcQSuj48vdOvZV3VgSq0Adu45yL5Eclt0hxXbron2gfQeNh8CAstDXlNth39AV83i4mLbyefGZ2jWe4di5zsP+lrX720BslppUcPHFr63tzcD6pkL1+HxNz874fdvVtmYqwDw6wfDNadn5YrCngtXgUtuUvQNm19QvQKT8txOnrnMbE1RNW2rwTQLfYqd7xzou4p+LwUKaqXBmPk4By1GwsQWf8PG5mWRTz68Dvu3r4VJ/QdBX95v0vKXYP/lJ/DgG8sjT63fkwH6/HTCCgB1+5krDluFPoI/K6cV4Axa/Py0sk6umrbBnkutWehXrFQRBk8YBXLHiaH8xCsTV9bvnQkhDvhjxk9hYESpRxh8Dcv34M29MLxBDPh6eLDWqUdgJMSm5kPnwnxIiasC4YGG/YE1xsPeu46Avyz0+fbp0LELREVXkQR8hH7XAdNYULlHf/un5sBPrpocxm1bahL6FDtfHMxKVVik39sHWSHw+XDlr98+OAoSfEth7xEJefPOwM3HvGveXAeNjMc9IHTQCQda/Jahjy6f9fM6SYb++Dk7WCV16twbmoI+uWraBnp+ak1Cn2Lnqwd90u958LVBWpEK/AevL4JaPKCHDz1VFui7+hha/9xXQPoiuGBDWfgVzONvLEMf3Ukz6uRJhv7gCatZ2d5692NNQZ9cNfkYt21dk9Cn2PnqQJ/0e2WB//ibz+G5Nvygaxkw64rINQUt/fhiR1rVlqGPYwfCwitKhn7rzsMhPCJKU8DHSo5cNW0DPT+15qBPsfOVBz7p9yLgldiyltrCZ63vK4ugBtd6x2XoKNhv5jqfXDsFS6aOg1nbrsFt0TTfwut7FsGwNjlQPb0BNMiqAbH1OsCwea/A+fv8UbSWob9j137Wcu85ZK5V8C/Z9DqEVIiEDgVdNQd9ctXkY9y2dc1Bn2LnKwt90u9VAv43/4K7Laj11QAACZRJREFUz3eQSbb5HHb0iIT4HrvhzIffGgH8yfkV0CjUAzx868D089x+y9DHyghHB/sHBMGEeS9YBH9OkwIoXz7EJGS0qZRkvy0dyYdcNW2DvDC15qBPsfOVgz7p9/ZDyqYWfmlL/cK8DFmg/2BXH/D1CIQq3bfCFX4H8Df/guMTYw3XiJkEh9kx69C/9+lXUCk6Bvz8AqDHoNllwF+8ZD+kpOewfHEeYEcArcS55KopxLht25qCPsXOVw74pN+bB/6VG3dg49ZdMGbcZMA4+AcOnwYM2cwByx7g47lyQf/ywjqllUdLWC1w57z9XMvSY11g40O8R+vQx7JhaIfefQeyc0MqREBaZiOo26gdRMcmsH04j7CY6ylnE2cuyVXTNsgLU2sK+hQ7X37ok35vHvbvffQFFHbrXQpNDwiPjAYMoYCDl4JDQlkYY3uBj1C8WZJnzJsFNLPXK+fxe7Bn3kyYtedd+ESg99vT0ucDG0MyYJTPlq3bQe06OTBg0DBYsXqDscLjp9XCOuequXnzZiHLaFuiBTQFfYqdLy/0Sb83D3xsxYZHREJQ+RDAODML158zyhwob2BsfgS1l5c3cAOvbIbeqWKozO/I9R0IuwTQtjlP/vmPL8G4agb///zV90tdQaW19B26Lr8MKq9jSAh8Lo8ePZKIOEomtIBmoE+x8+UFPun35oGPwEtJrcF06wXrXjPCnh93BtcxHj8CBiUf+yD5NsxK5wZl4TIWxp2yXK4HhyZDSlxrWHbdcrrHDz+EjT0iwQMHey27xvsC0Df0yVVTiHDbtzUDfYqdLx/0Sb+3DMwRoycwmE9dvM8s8LkKIK+NYeDUhStv2wX+B4dGQTivte/bZrsZl0ws811YnusHHqHDYK+gw9ZQ6dyEBblVIDYuBoJxwFd0Hsx4+S7cNUmrb+iTq6btkBeeoRnoU+x8x6FP+r1l2HOtdfRcadFxsFXgI/hXv3iL6fz2t/Z/gHMLG0CgEfx+UGuiIAwDSiSP78Puocng6xEJ3XZ9LqGC+RZuHCpmo319E0fBzlvSXTY5O7jaklw1hfi2b1sT0KfY+Y4Dn/R7acDH2bVQsikau0IS9BH81ZIy2Yxc9kPyB7h5dBG0iH46Otc3JBEaF5ZG2izMhyoYcC2wJgx/mdPmpd3P7ec7GIK4hXaDjXdwkJZ+W/rkqmkf5IVnaQL6FDvfMeiTfi8NkAjt/YdOMeiPLN4gGfqVYqqzKQTthz5Xvm/hxqk9MGvkIGhdD2Ua/NWAxoU4Evci3GAul1xaicvHe6Gg9Cui8thzuoY+uWoK8W3ftiagT7Hz7Yc+6fcS4VjqZXL77ucM+gNGL5UM/aoJNVmsF8ehb1tZDdf7HPZOzYc6TWbCbtaSF+ZxCcbFlHYWZ62ABzpt6ZOrpn2AFztLE9Cn2Pm2Q5/0eyH8pG/HxlaB5u2LJEEfpxP08vKC+YtXStDZpZdBcgXCi99TvfiaSBn2Qzeuv6BgN3ypU+iTq6YYvu3b53ToU+x824FP+r1jcJ0weTpr7eNE4JyXjrllo+bd2ATib7z1gQhwHSuHJPDfXgeNPDwgsGoBLDbG1+Fd99wsiGfQLw8dtmIHsD41fXLVtA/wYmc5HfoUO9826JN+zwOeAwODMmvVgerJWTBz5RGz4Me4NNjpu2T5WucAn93fD3BuXh0Iz50P+4weOqU2eHwfVpeGbg7vsbd0YhZ9Qp9cNcXwbd8+p0OfYudLhz7p9/IAH1vYh469BlWqVmNTARb2LzbOGbt86xswbvZ2qJXdnAG/Z58iJwKfu98f4Mq+WdCmaiSE1+sAfUfOhEkje0B99AaKyIHhW2/yfPX1B33OVfP8+fP2UY7OMrGAU6FPsfOlAZ/0ew5+8i4/+/J7KBo8nMEdW/QYbhiX+IuuHAubtu3RAPBN7/nhw8fw/kdfGH4ffwMPhV873+oP+sUz5kFgYKAJuGjDfgs4FfoUO9869Em/N4WeJB1cCEIr2+9+8AD27DsKM2YvAAwlfPq8WIep8uVQ4t70kCe5atoPeLEznQp9ip1vGfoG/b4c+Pn7azryoR7AQvegzUqNXDXFsO3YPqdBn2LnWwY+6ffahBBVDuo+F3LVdAzwYmc7DfoUO18c+qTfqwsVgri27d2jd3/IyMgUYxfts9MCToM+xc4vC33S77UNIKog1H8+5KppJ9ktnOYU6FPs/LLAJ/1efaAQxLVtc3LVtEBuBw45BfoUO98U+qTfaxs+VDk45/mQq6YDZLdwqlOgT7HzDdAn/d45MCGIu4bdyVXTArkdOKQ69Cl2vgH4pN+7BniognDOcyJXTQeobuVU1aFPsfOfAOn3zgEJAdx17E6umlbI7cBh1aHv7rHzSb93HfBQJeG8Z0Wumg5Q3cqpqkPfXWPnk37vPIAQvF3P9uSqaYXcDhxWFfruGjuf9HvXgw5VFM57ZuSq6QDRJZyqKvTdMXY+6ffOgweB2zVtT66aEsjtQBJVoY+x83sM6gd3fzL1U9frNun3rgkdqiyc+9zqN2gMXboUOoA1OtWSBVSDvjvFzif93rnQIGi7rv3JVdMSruU5phr03SV2Pun3rgscqiyc/+w4V02Mwkt/ylhANei7Q+x80u+dDw0Ct2s/A3LVVAb0/FxVgb47xM4n/d61YUOVhTaeH7lq8vGszLoq0Ndz7HzS77UBC4K26z8HctVUBvLCXFWBvl5j55N+7/qgocpCO8+QXDWFeFZmW3Ho6zV2Pun32oEFgVsfz4JcNZWBvDBXxaG/e/du8PDwgLPvv6kb/3zS7/UBGaostPMcyVVTiGblthWHvp5i55N+rx1IELD19SzIVVM5yAtzVhT6XOz87MYNYfiU8S796zNiMERUigJPT09ITasJ4yYW049sQO+ATO9AWnoGTYAupLNC24pC//vvv4f4+HiIqxLn8r+IyAjw9/eH0NBQiIurQj+yAb0DMr8DCxcuVAhzlC3fAopCn38hWicLkAXIAmQB51uAoO/8Z0AlIAuQBcgCqlmAoK+aqelCZAGyAFnA+RYg6Dv/GVAJyAJkAbKAahYg6KtmaroQWYAsQBZwvgUI+s5/BlQCsgBZgCygmgUI+qqZmi5EFiALkAWcbwGCvvOfAZWALEAWIAuoZgGCvmqmpguRBcgCZAHnW4Cg7/xnQCUgC5AFyAKqWYCgr5qp6UJkAbIAWcD5FiDoO/8ZUAnIAmQBsoBqFiDoq2ZquhBZgCxAFnC+BQj6zn8GVAKyAFmALKCaBQj6qpmaLkQWIAuQBZxvgf8PMOQFjCBQrZoAAAAASUVORK5CYII=;" parent="1" vertex="1">
          <mxGeometry x="-260.08000000000004" y="2.25" width="250.7" height="164.5" as="geometry" />
        </mxCell>
        <mxCell id="xHklydh9YZorjnQWgcOz-1" value="预训练语言模型" style="rounded=1;whiteSpace=wrap;html=1;fillColor=#fff2cc;strokeColor=#d6b656;gradientColor=#ffd966;fontSize=16;" parent="1" vertex="1">
          <mxGeometry x="-765.75" y="699.69" width="569.75" height="31.31" as="geometry" />
        </mxCell>
        <mxCell id="xHklydh9YZorjnQWgcOz-2" value="Barack Obama was born in 1961." style="rounded=1;whiteSpace=wrap;html=1;dashed=1;fontSize=16;dashPattern=8 8;strokeColor=#82b366;fillColor=#d5e8d4;" parent="1" vertex="1">
          <mxGeometry x="-765.09" y="773" width="250" height="40" as="geometry" />
        </mxCell>
        <mxCell id="xHklydh9YZorjnQWgcOz-3" value="person . location . orgnization . ······" style="rounded=1;whiteSpace=wrap;html=1;dashed=1;fontSize=16;fontStyle=0;strokeColor=#6c8ebf;dashPattern=8 8;fillColor=#dae8fc;" parent="1" vertex="1">
          <mxGeometry x="-487.09" y="773" width="295" height="40" as="geometry" />
        </mxCell>
        <mxCell id="xHklydh9YZorjnQWgcOz-4" value="" style="rounded=0;whiteSpace=wrap;html=1;fillColor=#e51400;strokeColor=#B20000;fontColor=#ffffff;" parent="1" vertex="1">
          <mxGeometry x="-324.83" y="467" width="10" height="30" as="geometry" />
        </mxCell>
        <mxCell id="xHklydh9YZorjnQWgcOz-5" value="" style="rounded=0;whiteSpace=wrap;html=1;fillColor=#b1ddf0;strokeColor=#10739e;" parent="1" vertex="1">
          <mxGeometry x="-310.83" y="427" width="10" height="70" as="geometry" />
        </mxCell>
        <mxCell id="xHklydh9YZorjnQWgcOz-6" value="" style="rounded=0;whiteSpace=wrap;html=1;fillColor=#ffff88;strokeColor=#36393d;" parent="1" vertex="1">
          <mxGeometry x="-295.83" y="457" width="10" height="40" as="geometry" />
        </mxCell>
        <mxCell id="xHklydh9YZorjnQWgcOz-7" value="" style="rounded=0;whiteSpace=wrap;html=1;fillColor=#f8cecc;strokeColor=#b85450;" parent="1" vertex="1">
          <mxGeometry x="-281.83" y="487" width="10" height="10" as="geometry" />
        </mxCell>
        <mxCell id="xHklydh9YZorjnQWgcOz-8" value="" style="endArrow=classicThin;html=1;rounded=0;strokeWidth=2;targetPerimeterSpacing=0;endFill=1;" parent="1" edge="1">
          <mxGeometry width="50" height="50" relative="1" as="geometry">
            <mxPoint x="-335.24999999999994" y="497" as="sourcePoint" />
            <mxPoint x="-254.83" y="497" as="targetPoint" />
          </mxGeometry>
        </mxCell>
        <mxCell id="xHklydh9YZorjnQWgcOz-9" value="" style="endArrow=classicThin;html=1;rounded=0;strokeWidth=2;targetPerimeterSpacing=0;endFill=1;" parent="1" edge="1">
          <mxGeometry width="50" height="50" relative="1" as="geometry">
            <mxPoint x="-334.66" y="497" as="sourcePoint" />
            <mxPoint x="-334.83" y="417" as="targetPoint" />
          </mxGeometry>
        </mxCell>
        <mxCell id="xHklydh9YZorjnQWgcOz-10" value="" style="endArrow=classicThin;html=1;rounded=0;strokeWidth=2;targetPerimeterSpacing=0;endFill=1;" parent="1" edge="1">
          <mxGeometry width="50" height="50" relative="1" as="geometry">
            <mxPoint x="-500.09" y="753" as="sourcePoint" />
            <mxPoint x="-500.29999999999995" y="733" as="targetPoint" />
            <Array as="points" />
          </mxGeometry>
        </mxCell>
        <mxCell id="xHklydh9YZorjnQWgcOz-11" value="" style="endArrow=classicThin;html=1;rounded=0;strokeWidth=2;targetPerimeterSpacing=0;endFill=1;" parent="1" edge="1">
          <mxGeometry width="50" height="50" relative="1" as="geometry">
            <mxPoint x="-254.49999999999994" y="72.5" as="sourcePoint" />
            <mxPoint x="-254.49999999999994" y="32.5" as="targetPoint" />
          </mxGeometry>
        </mxCell>
        <mxCell id="xHklydh9YZorjnQWgcOz-12" value="" style="endArrow=none;html=1;rounded=0;strokeWidth=2;targetPerimeterSpacing=0;endFill=0;" parent="1" edge="1">
          <mxGeometry width="50" height="50" relative="1" as="geometry">
            <mxPoint x="-345.09" y="753" as="sourcePoint" />
            <mxPoint x="-500.29999999999995" y="753" as="targetPoint" />
          </mxGeometry>
        </mxCell>
        <mxCell id="xHklydh9YZorjnQWgcOz-13" value="" style="endArrow=none;html=1;rounded=0;strokeWidth=2;targetPerimeterSpacing=0;endFill=0;" parent="1" edge="1">
          <mxGeometry width="50" height="50" relative="1" as="geometry">
            <mxPoint x="-499.87999999999994" y="753" as="sourcePoint" />
            <mxPoint x="-655.09" y="753" as="targetPoint" />
          </mxGeometry>
        </mxCell>
        <mxCell id="xHklydh9YZorjnQWgcOz-14" value="" style="endArrow=none;html=1;rounded=0;strokeWidth=2;targetPerimeterSpacing=0;endFill=0;" parent="1" edge="1">
          <mxGeometry width="50" height="50" relative="1" as="geometry">
            <mxPoint x="-655.09" y="773" as="sourcePoint" />
            <mxPoint x="-655.09" y="753" as="targetPoint" />
          </mxGeometry>
        </mxCell>
        <mxCell id="xHklydh9YZorjnQWgcOz-15" value="" style="endArrow=none;html=1;rounded=0;strokeWidth=2;targetPerimeterSpacing=0;endFill=0;" parent="1" edge="1">
          <mxGeometry width="50" height="50" relative="1" as="geometry">
            <mxPoint x="-345.09" y="773" as="sourcePoint" />
            <mxPoint x="-345.09" y="753" as="targetPoint" />
          </mxGeometry>
        </mxCell>
        <mxCell id="xHklydh9YZorjnQWgcOz-16" value="" style="endArrow=none;html=1;rounded=0;strokeWidth=2;targetPerimeterSpacing=0;endFill=0;" parent="1" edge="1">
          <mxGeometry width="50" height="50" relative="1" as="geometry">
            <mxPoint x="-227.07999999999998" y="74.5" as="sourcePoint" />
            <mxPoint x="-227.07999999999998" y="34.5" as="targetPoint" />
          </mxGeometry>
        </mxCell>
        <mxCell id="xHklydh9YZorjnQWgcOz-17" value="" style="endArrow=none;html=1;rounded=0;strokeWidth=2;targetPerimeterSpacing=0;endFill=0;" parent="1" edge="1">
          <mxGeometry width="50" height="50" relative="1" as="geometry">
            <mxPoint x="-500.91999999999996" y="699.69" as="sourcePoint" />
            <mxPoint x="-500.92" y="679.69" as="targetPoint" />
            <Array as="points" />
          </mxGeometry>
        </mxCell>
        <mxCell id="xHklydh9YZorjnQWgcOz-18" value="" style="endArrow=none;html=1;rounded=0;strokeWidth=2;targetPerimeterSpacing=0;endFill=0;" parent="1" edge="1">
          <mxGeometry width="50" height="50" relative="1" as="geometry">
            <mxPoint x="-345.15" y="679.69" as="sourcePoint" />
            <mxPoint x="-500.35999999999996" y="679.69" as="targetPoint" />
          </mxGeometry>
        </mxCell>
        <mxCell id="xHklydh9YZorjnQWgcOz-19" value="" style="endArrow=none;html=1;rounded=0;strokeWidth=2;targetPerimeterSpacing=0;endFill=0;" parent="1" edge="1">
          <mxGeometry width="50" height="50" relative="1" as="geometry">
            <mxPoint x="-500.53999999999996" y="679.69" as="sourcePoint" />
            <mxPoint x="-655.75" y="679.69" as="targetPoint" />
          </mxGeometry>
        </mxCell>
        <mxCell id="xHklydh9YZorjnQWgcOz-20" value="" style="endArrow=classicThin;html=1;rounded=0;strokeWidth=2;targetPerimeterSpacing=0;endFill=1;" parent="1" edge="1">
          <mxGeometry width="50" height="50" relative="1" as="geometry">
            <mxPoint x="-345.53999999999996" y="679.69" as="sourcePoint" />
            <mxPoint x="-345.75" y="659.69" as="targetPoint" />
            <Array as="points" />
          </mxGeometry>
        </mxCell>
        <mxCell id="xHklydh9YZorjnQWgcOz-21" value="" style="endArrow=classicThin;html=1;rounded=0;strokeWidth=2;targetPerimeterSpacing=0;endFill=1;" parent="1" edge="1">
          <mxGeometry width="50" height="50" relative="1" as="geometry">
            <mxPoint x="-655.54" y="679.69" as="sourcePoint" />
            <mxPoint x="-655.75" y="659.69" as="targetPoint" />
            <Array as="points" />
          </mxGeometry>
        </mxCell>
        <mxCell id="xHklydh9YZorjnQWgcOz-22" value="原文本" style="text;html=1;align=center;verticalAlign=middle;resizable=0;points=[];autosize=1;strokeColor=none;fillColor=none;" parent="1" vertex="1">
          <mxGeometry x="-773.34" y="818" width="60" height="30" as="geometry" />
        </mxCell>
        <mxCell id="xHklydh9YZorjnQWgcOz-23" value="标签语义" style="text;html=1;align=center;verticalAlign=middle;resizable=0;points=[];autosize=1;strokeColor=none;fillColor=none;" parent="1" vertex="1">
          <mxGeometry x="-250.17000000000002" y="818" width="70" height="30" as="geometry" />
        </mxCell>
        <mxCell id="xHklydh9YZorjnQWgcOz-29" value="" style="rounded=0;whiteSpace=wrap;html=1;fillColor=#d5e8d4;strokeColor=#82b366;" parent="1" vertex="1">
          <mxGeometry x="-698.25" y="605.19" width="70" height="15" as="geometry" />
        </mxCell>
        <mxCell id="xHklydh9YZorjnQWgcOz-30" value="" style="ellipse;whiteSpace=wrap;html=1;aspect=fixed;fillColor=#008a00;fontColor=#ffffff;strokeColor=#005700;" parent="1" vertex="1">
          <mxGeometry x="-678.25" y="607.69" width="10" height="10" as="geometry" />
        </mxCell>
        <mxCell id="xHklydh9YZorjnQWgcOz-31" value="" style="ellipse;whiteSpace=wrap;html=1;aspect=fixed;fillColor=#e51400;fontColor=#ffffff;strokeColor=#B20000;" parent="1" vertex="1">
          <mxGeometry x="-694.25" y="607.69" width="10" height="10" as="geometry" />
        </mxCell>
        <mxCell id="xHklydh9YZorjnQWgcOz-32" value="" style="ellipse;whiteSpace=wrap;html=1;aspect=fixed;fillColor=#0050ef;fontColor=#ffffff;strokeColor=#001DBC;" parent="1" vertex="1">
          <mxGeometry x="-663.25" y="607.69" width="10" height="10" as="geometry" />
        </mxCell>
        <mxCell id="xHklydh9YZorjnQWgcOz-33" value="" style="rounded=0;whiteSpace=wrap;html=1;fillColor=#d5e8d4;strokeColor=#82b366;" parent="1" vertex="1">
          <mxGeometry x="-698.25" y="620.19" width="70" height="15" as="geometry" />
        </mxCell>
        <mxCell id="xHklydh9YZorjnQWgcOz-34" value="" style="ellipse;whiteSpace=wrap;html=1;aspect=fixed;fillColor=#008a00;fontColor=#ffffff;strokeColor=#005700;" parent="1" vertex="1">
          <mxGeometry x="-678.25" y="622.69" width="10" height="10" as="geometry" />
        </mxCell>
        <mxCell id="xHklydh9YZorjnQWgcOz-35" value="" style="ellipse;whiteSpace=wrap;html=1;aspect=fixed;fillColor=#e51400;fontColor=#ffffff;strokeColor=#B20000;" parent="1" vertex="1">
          <mxGeometry x="-694.25" y="622.69" width="10" height="10" as="geometry" />
        </mxCell>
        <mxCell id="xHklydh9YZorjnQWgcOz-36" value="" style="ellipse;whiteSpace=wrap;html=1;aspect=fixed;fillColor=#0050ef;fontColor=#ffffff;strokeColor=#001DBC;" parent="1" vertex="1">
          <mxGeometry x="-663.25" y="622.69" width="10" height="10" as="geometry" />
        </mxCell>
        <mxCell id="xHklydh9YZorjnQWgcOz-37" value="" style="rounded=0;whiteSpace=wrap;html=1;fillColor=#d5e8d4;strokeColor=#82b366;" parent="1" vertex="1">
          <mxGeometry x="-698.25" y="635.19" width="70" height="15" as="geometry" />
        </mxCell>
        <mxCell id="xHklydh9YZorjnQWgcOz-38" value="" style="ellipse;whiteSpace=wrap;html=1;aspect=fixed;fillColor=#008a00;fontColor=#ffffff;strokeColor=#005700;" parent="1" vertex="1">
          <mxGeometry x="-678.25" y="637.69" width="10" height="10" as="geometry" />
        </mxCell>
        <mxCell id="xHklydh9YZorjnQWgcOz-39" value="" style="ellipse;whiteSpace=wrap;html=1;aspect=fixed;fillColor=#e51400;fontColor=#ffffff;strokeColor=#B20000;" parent="1" vertex="1">
          <mxGeometry x="-694.25" y="637.69" width="10" height="10" as="geometry" />
        </mxCell>
        <mxCell id="xHklydh9YZorjnQWgcOz-40" value="" style="ellipse;whiteSpace=wrap;html=1;aspect=fixed;fillColor=#0050ef;fontColor=#ffffff;strokeColor=#001DBC;" parent="1" vertex="1">
          <mxGeometry x="-663.25" y="637.69" width="10" height="10" as="geometry" />
        </mxCell>
        <mxCell id="xHklydh9YZorjnQWgcOz-46" value="···" style="text;html=1;align=center;verticalAlign=middle;resizable=0;points=[];autosize=1;strokeColor=none;fillColor=none;" parent="1" vertex="1">
          <mxGeometry x="-663.25" y="597.69" width="40" height="30" as="geometry" />
        </mxCell>
        <mxCell id="xHklydh9YZorjnQWgcOz-47" value="···" style="text;html=1;align=center;verticalAlign=middle;resizable=0;points=[];autosize=1;strokeColor=none;fillColor=none;" parent="1" vertex="1">
          <mxGeometry x="-663.25" y="612.69" width="40" height="30" as="geometry" />
        </mxCell>
        <mxCell id="xHklydh9YZorjnQWgcOz-48" value="···" style="text;html=1;align=center;verticalAlign=middle;resizable=0;points=[];autosize=1;strokeColor=none;fillColor=none;" parent="1" vertex="1">
          <mxGeometry x="-663.25" y="627.69" width="40" height="30" as="geometry" />
        </mxCell>
        <mxCell id="xHklydh9YZorjnQWgcOz-50" value="文本特征" style="text;html=1;align=center;verticalAlign=middle;resizable=0;points=[];autosize=1;strokeColor=none;fillColor=none;fontSize=8;fontStyle=1" parent="1" vertex="1">
          <mxGeometry x="-695.75" y="587.69" width="60" height="20" as="geometry" />
        </mxCell>
        <mxCell id="xHklydh9YZorjnQWgcOz-56" value="" style="rounded=0;whiteSpace=wrap;html=1;fillColor=#dae8fc;strokeColor=#6c8ebf;" parent="1" vertex="1">
          <mxGeometry x="-380.25" y="605.19" width="70" height="15" as="geometry" />
        </mxCell>
        <mxCell id="xHklydh9YZorjnQWgcOz-57" value="" style="ellipse;whiteSpace=wrap;html=1;aspect=fixed;fillColor=#008a00;fontColor=#ffffff;strokeColor=#005700;" parent="1" vertex="1">
          <mxGeometry x="-360.25" y="607.69" width="10" height="10" as="geometry" />
        </mxCell>
        <mxCell id="xHklydh9YZorjnQWgcOz-58" value="" style="ellipse;whiteSpace=wrap;html=1;aspect=fixed;fillColor=#e51400;fontColor=#ffffff;strokeColor=#B20000;" parent="1" vertex="1">
          <mxGeometry x="-376.25" y="607.69" width="10" height="10" as="geometry" />
        </mxCell>
        <mxCell id="xHklydh9YZorjnQWgcOz-59" value="" style="ellipse;whiteSpace=wrap;html=1;aspect=fixed;fillColor=#0050ef;fontColor=#ffffff;strokeColor=#001DBC;" parent="1" vertex="1">
          <mxGeometry x="-345.25" y="607.69" width="10" height="10" as="geometry" />
        </mxCell>
        <mxCell id="xHklydh9YZorjnQWgcOz-60" value="" style="rounded=0;whiteSpace=wrap;html=1;fillColor=#dae8fc;strokeColor=#6c8ebf;" parent="1" vertex="1">
          <mxGeometry x="-380.25" y="620.19" width="70" height="15" as="geometry" />
        </mxCell>
        <mxCell id="xHklydh9YZorjnQWgcOz-61" value="" style="ellipse;whiteSpace=wrap;html=1;aspect=fixed;fillColor=#008a00;fontColor=#ffffff;strokeColor=#005700;" parent="1" vertex="1">
          <mxGeometry x="-360.25" y="622.69" width="10" height="10" as="geometry" />
        </mxCell>
        <mxCell id="xHklydh9YZorjnQWgcOz-62" value="" style="ellipse;whiteSpace=wrap;html=1;aspect=fixed;fillColor=#e51400;fontColor=#ffffff;strokeColor=#B20000;" parent="1" vertex="1">
          <mxGeometry x="-376.25" y="622.69" width="10" height="10" as="geometry" />
        </mxCell>
        <mxCell id="xHklydh9YZorjnQWgcOz-63" value="" style="ellipse;whiteSpace=wrap;html=1;aspect=fixed;fillColor=#0050ef;fontColor=#ffffff;strokeColor=#001DBC;" parent="1" vertex="1">
          <mxGeometry x="-345.25" y="622.69" width="10" height="10" as="geometry" />
        </mxCell>
        <mxCell id="xHklydh9YZorjnQWgcOz-64" value="" style="rounded=0;whiteSpace=wrap;html=1;fillColor=#dae8fc;strokeColor=#6c8ebf;" parent="1" vertex="1">
          <mxGeometry x="-380.25" y="635.19" width="70" height="15" as="geometry" />
        </mxCell>
        <mxCell id="xHklydh9YZorjnQWgcOz-65" value="" style="ellipse;whiteSpace=wrap;html=1;aspect=fixed;fillColor=#008a00;fontColor=#ffffff;strokeColor=#005700;" parent="1" vertex="1">
          <mxGeometry x="-360.25" y="637.69" width="10" height="10" as="geometry" />
        </mxCell>
        <mxCell id="xHklydh9YZorjnQWgcOz-66" value="" style="ellipse;whiteSpace=wrap;html=1;aspect=fixed;fillColor=#e51400;fontColor=#ffffff;strokeColor=#B20000;" parent="1" vertex="1">
          <mxGeometry x="-376.25" y="637.69" width="10" height="10" as="geometry" />
        </mxCell>
        <mxCell id="xHklydh9YZorjnQWgcOz-67" value="" style="ellipse;whiteSpace=wrap;html=1;aspect=fixed;fillColor=#0050ef;fontColor=#ffffff;strokeColor=#001DBC;" parent="1" vertex="1">
          <mxGeometry x="-345.25" y="637.69" width="10" height="10" as="geometry" />
        </mxCell>
        <mxCell id="xHklydh9YZorjnQWgcOz-73" value="···" style="text;html=1;align=center;verticalAlign=middle;resizable=0;points=[];autosize=1;strokeColor=none;fillColor=none;" parent="1" vertex="1">
          <mxGeometry x="-345.25" y="597.69" width="40" height="30" as="geometry" />
        </mxCell>
        <mxCell id="xHklydh9YZorjnQWgcOz-74" value="···" style="text;html=1;align=center;verticalAlign=middle;resizable=0;points=[];autosize=1;strokeColor=none;fillColor=none;" parent="1" vertex="1">
          <mxGeometry x="-345.25" y="612.69" width="40" height="30" as="geometry" />
        </mxCell>
        <mxCell id="xHklydh9YZorjnQWgcOz-75" value="···" style="text;html=1;align=center;verticalAlign=middle;resizable=0;points=[];autosize=1;strokeColor=none;fillColor=none;" parent="1" vertex="1">
          <mxGeometry x="-345.25" y="627.69" width="40" height="30" as="geometry" />
        </mxCell>
        <mxCell id="xHklydh9YZorjnQWgcOz-78" value="" style="endArrow=none;html=1;rounded=0;strokeWidth=2;targetPerimeterSpacing=0;endFill=0;" parent="1" edge="1">
          <mxGeometry width="50" height="50" relative="1" as="geometry">
            <mxPoint x="-635.75" y="569.69" as="sourcePoint" />
            <mxPoint x="-708.25" y="569.69" as="targetPoint" />
          </mxGeometry>
        </mxCell>
        <mxCell id="xHklydh9YZorjnQWgcOz-79" value="" style="endArrow=none;html=1;rounded=0;strokeWidth=2;targetPerimeterSpacing=0;endFill=0;" parent="1" edge="1">
          <mxGeometry width="50" height="50" relative="1" as="geometry">
            <mxPoint x="-658.54" y="589.69" as="sourcePoint" />
            <mxPoint x="-658.54" y="569.69" as="targetPoint" />
            <Array as="points" />
          </mxGeometry>
        </mxCell>
        <mxCell id="xHklydh9YZorjnQWgcOz-80" value="" style="endArrow=none;html=1;rounded=0;strokeWidth=2;targetPerimeterSpacing=0;endFill=0;" parent="1" edge="1">
          <mxGeometry width="50" height="50" relative="1" as="geometry">
            <mxPoint x="-635.75" y="569.69" as="sourcePoint" />
            <mxPoint x="-635.75" y="493.69" as="targetPoint" />
            <Array as="points" />
          </mxGeometry>
        </mxCell>
        <mxCell id="xHklydh9YZorjnQWgcOz-81" value="" style="endArrow=classicThin;html=1;rounded=0;strokeWidth=2;targetPerimeterSpacing=0;endFill=1;" parent="1" edge="1">
          <mxGeometry width="50" height="50" relative="1" as="geometry">
            <mxPoint x="-707.25" y="569.69" as="sourcePoint" />
            <mxPoint x="-707.25" y="549.69" as="targetPoint" />
            <Array as="points" />
          </mxGeometry>
        </mxCell>
        <mxCell id="xHklydh9YZorjnQWgcOz-82" value="标签特征" style="text;html=1;align=center;verticalAlign=middle;resizable=0;points=[];autosize=1;strokeColor=none;fillColor=none;fontSize=8;fontStyle=1" parent="1" vertex="1">
          <mxGeometry x="-375.25" y="587.69" width="60" height="20" as="geometry" />
        </mxCell>
        <mxCell id="xHklydh9YZorjnQWgcOz-90" value="类型分类" style="text;html=1;align=center;verticalAlign=middle;resizable=0;points=[];autosize=1;strokeColor=none;fillColor=none;fontSize=12;fontStyle=1" parent="1" vertex="1">
          <mxGeometry x="-623.25" y="402" width="70" height="30" as="geometry" />
        </mxCell>
        <mxCell id="xHklydh9YZorjnQWgcOz-91" value="原型网络" style="text;html=1;align=center;verticalAlign=middle;resizable=0;points=[];autosize=1;strokeColor=none;fillColor=none;" parent="1" vertex="1">
          <mxGeometry x="-545.75" y="422.69" width="70" height="30" as="geometry" />
        </mxCell>
        <mxCell id="xHklydh9YZorjnQWgcOz-93" value="" style="endArrow=none;html=1;rounded=0;strokeWidth=2;targetPerimeterSpacing=0;endFill=0;exitX=0.5;exitY=0;exitDx=0;exitDy=0;" parent="1" source="xHklydh9YZorjnQWgcOz-100" edge="1">
          <mxGeometry width="50" height="50" relative="1" as="geometry">
            <mxPoint x="-708.25" y="509.6899999999999" as="sourcePoint" />
            <mxPoint x="-707.75" y="494.69" as="targetPoint" />
            <Array as="points" />
          </mxGeometry>
        </mxCell>
        <mxCell id="xHklydh9YZorjnQWgcOz-94" value="" style="endArrow=none;html=1;rounded=0;strokeWidth=2;targetPerimeterSpacing=0;endFill=0;" parent="1" edge="1">
          <mxGeometry width="50" height="50" relative="1" as="geometry">
            <mxPoint x="-635.75" y="494.35" as="sourcePoint" />
            <mxPoint x="-708.25" y="494.35" as="targetPoint" />
            <Array as="points" />
          </mxGeometry>
        </mxCell>
        <mxCell id="xHklydh9YZorjnQWgcOz-95" value="" style="endArrow=none;html=1;rounded=0;strokeWidth=2;targetPerimeterSpacing=0;endFill=0;startArrow=classicThin;startFill=1;exitX=0.014;exitY=0.586;exitDx=0;exitDy=0;exitPerimeter=0;" parent="1" source="xHklydh9YZorjnQWgcOz-97" edge="1">
          <mxGeometry width="50" height="50" relative="1" as="geometry">
            <mxPoint x="-605.75" y="529.69" as="sourcePoint" />
            <mxPoint x="-635.75" y="529.4" as="targetPoint" />
            <Array as="points" />
          </mxGeometry>
        </mxCell>
        <mxCell id="xHklydh9YZorjnQWgcOz-98" value="" style="endArrow=none;html=1;rounded=0;strokeWidth=2;targetPerimeterSpacing=0;endFill=0;exitX=0;exitY=0.5;exitDx=0;exitDy=0;" parent="1" edge="1">
          <mxGeometry width="50" height="50" relative="1" as="geometry">
            <mxPoint x="-390.25" y="632.21" as="sourcePoint" />
            <mxPoint x="-465.75" y="632.69" as="targetPoint" />
            <Array as="points" />
          </mxGeometry>
        </mxCell>
        <mxCell id="xHklydh9YZorjnQWgcOz-99" value="" style="endArrow=none;html=1;rounded=0;strokeWidth=2;targetPerimeterSpacing=0;endFill=0;startArrow=classicThin;startFill=1;exitX=0.722;exitY=0.954;exitDx=0;exitDy=0;exitPerimeter=0;" parent="1" edge="1">
          <mxGeometry width="50" height="50" relative="1" as="geometry">
            <mxPoint x="-465.56999999999994" y="601.9499999999998" as="sourcePoint" />
            <mxPoint x="-465.75" y="632.69" as="targetPoint" />
            <Array as="points" />
          </mxGeometry>
        </mxCell>
        <mxCell id="xHklydh9YZorjnQWgcOz-100" value="跨度检测" style="rounded=1;whiteSpace=wrap;html=1;fontStyle=1" parent="1" vertex="1">
          <mxGeometry x="-738.25" y="519.19" width="60" height="30.5" as="geometry" />
        </mxCell>
        <mxCell id="xHklydh9YZorjnQWgcOz-102" value="" style="ellipse;whiteSpace=wrap;html=1;aspect=fixed;dashed=1;strokeColor=#FF3333;" parent="1" vertex="1">
          <mxGeometry x="-780.75" y="52.5" width="57" height="57" as="geometry" />
        </mxCell>
        <mxCell id="xHklydh9YZorjnQWgcOz-103" value="" style="shape=waypoint;sketch=0;size=6;pointerEvents=1;points=[];fillColor=none;resizable=0;rotatable=0;perimeter=centerPerimeter;snapToPoint=1;" parent="1" vertex="1">
          <mxGeometry x="-754.75" y="12.5" width="20" height="20" as="geometry" />
        </mxCell>
        <mxCell id="xHklydh9YZorjnQWgcOz-104" value="" style="verticalLabelPosition=bottom;verticalAlign=top;html=1;shape=mxgraph.basic.star;fillColor=#e51400;fontColor=#ffffff;strokeColor=#B20000;" parent="1" vertex="1">
          <mxGeometry x="-758.5" y="74.5" width="12.5" height="13" as="geometry" />
        </mxCell>
        <mxCell id="xHklydh9YZorjnQWgcOz-105" value="" style="shape=waypoint;sketch=0;size=6;pointerEvents=1;points=[];fillColor=#e51400;resizable=0;rotatable=0;perimeter=centerPerimeter;snapToPoint=1;fontColor=#ffffff;strokeColor=#B20000;" parent="1" vertex="1">
          <mxGeometry x="-746" y="74.5" width="20" height="20" as="geometry" />
        </mxCell>
        <mxCell id="xHklydh9YZorjnQWgcOz-106" value="" style="shape=waypoint;sketch=0;size=6;pointerEvents=1;points=[];fillColor=#e51400;resizable=0;rotatable=0;perimeter=centerPerimeter;snapToPoint=1;fontColor=#ffffff;strokeColor=#B20000;" parent="1" vertex="1">
          <mxGeometry x="-762.25" y="87.5" width="20" height="20" as="geometry" />
        </mxCell>
        <mxCell id="xHklydh9YZorjnQWgcOz-107" value="" style="shape=waypoint;sketch=0;size=6;pointerEvents=1;points=[];fillColor=#e51400;resizable=0;rotatable=0;perimeter=centerPerimeter;snapToPoint=1;strokeColor=#B20000;fontColor=#ffffff;" parent="1" vertex="1">
          <mxGeometry x="-766" y="57.5" width="20" height="20" as="geometry" />
        </mxCell>
        <mxCell id="xHklydh9YZorjnQWgcOz-108" value="" style="shape=waypoint;sketch=0;size=6;pointerEvents=1;points=[];fillColor=#e51400;resizable=0;rotatable=0;perimeter=centerPerimeter;snapToPoint=1;fontColor=#ffffff;strokeColor=#B20000;" parent="1" vertex="1">
          <mxGeometry x="-778.5" y="87.5" width="20" height="20" as="geometry" />
        </mxCell>
        <mxCell id="xHklydh9YZorjnQWgcOz-110" value="PER" style="text;html=1;align=center;verticalAlign=middle;resizable=0;points=[];autosize=1;strokeColor=none;fillColor=none;fontSize=8;" parent="1" vertex="1">
          <mxGeometry x="-794.75" y="12.5" width="40" height="20" as="geometry" />
        </mxCell>
        <mxCell id="xHklydh9YZorjnQWgcOz-113" value="" style="ellipse;whiteSpace=wrap;html=1;aspect=fixed;dashed=1;strokeColor=#47a9e6;" parent="1" vertex="1">
          <mxGeometry x="-778.5" y="133" width="57" height="57" as="geometry" />
        </mxCell>
        <mxCell id="xHklydh9YZorjnQWgcOz-114" value="" style="verticalLabelPosition=bottom;verticalAlign=top;html=1;shape=mxgraph.basic.star;fillColor=#dae8fc;strokeColor=#6c8ebf;" parent="1" vertex="1">
          <mxGeometry x="-756.25" y="155" width="12.5" height="13" as="geometry" />
        </mxCell>
        <mxCell id="xHklydh9YZorjnQWgcOz-115" value="" style="shape=waypoint;sketch=0;size=6;pointerEvents=1;points=[];fillColor=#dae8fc;resizable=0;rotatable=0;perimeter=centerPerimeter;snapToPoint=1;strokeColor=#6c8ebf;" parent="1" vertex="1">
          <mxGeometry x="-746" y="141.5" width="20" height="20" as="geometry" />
        </mxCell>
        <mxCell id="xHklydh9YZorjnQWgcOz-116" value="" style="shape=waypoint;sketch=0;size=6;pointerEvents=1;points=[];fillColor=#dae8fc;resizable=0;rotatable=0;perimeter=centerPerimeter;snapToPoint=1;strokeColor=#6c8ebf;" parent="1" vertex="1">
          <mxGeometry x="-760" y="168" width="20" height="20" as="geometry" />
        </mxCell>
        <mxCell id="xHklydh9YZorjnQWgcOz-117" value="" style="shape=waypoint;sketch=0;size=6;pointerEvents=1;points=[];fillColor=#dae8fc;resizable=0;rotatable=0;perimeter=centerPerimeter;snapToPoint=1;strokeColor=#6c8ebf;" parent="1" vertex="1">
          <mxGeometry x="-763.75" y="138" width="20" height="20" as="geometry" />
        </mxCell>
        <mxCell id="xHklydh9YZorjnQWgcOz-118" value="" style="shape=waypoint;sketch=0;size=6;pointerEvents=1;points=[];fillColor=#dae8fc;resizable=0;rotatable=0;perimeter=centerPerimeter;snapToPoint=1;strokeColor=#6c8ebf;" parent="1" vertex="1">
          <mxGeometry x="-776.25" y="168" width="20" height="20" as="geometry" />
        </mxCell>
        <mxCell id="xHklydh9YZorjnQWgcOz-125" value="" style="ellipse;whiteSpace=wrap;html=1;aspect=fixed;dashed=1;strokeColor=#FFD966;" parent="1" vertex="1">
          <mxGeometry x="-780" y="215" width="57" height="57" as="geometry" />
        </mxCell>
        <mxCell id="xHklydh9YZorjnQWgcOz-126" value="" style="verticalLabelPosition=bottom;verticalAlign=top;html=1;shape=mxgraph.basic.star;fillColor=#ffff88;strokeColor=#36393d;" parent="1" vertex="1">
          <mxGeometry x="-757.75" y="237" width="12.5" height="13" as="geometry" />
        </mxCell>
        <mxCell id="xHklydh9YZorjnQWgcOz-127" value="" style="shape=waypoint;sketch=0;size=6;pointerEvents=1;points=[];fillColor=#e3c800;resizable=0;rotatable=0;perimeter=centerPerimeter;snapToPoint=1;strokeColor=#B09500;fontColor=#000000;" parent="1" vertex="1">
          <mxGeometry x="-745.25" y="237" width="20" height="20" as="geometry" />
        </mxCell>
        <mxCell id="xHklydh9YZorjnQWgcOz-128" value="" style="shape=waypoint;sketch=0;size=6;pointerEvents=1;points=[];fillColor=#e3c800;resizable=0;rotatable=0;perimeter=centerPerimeter;snapToPoint=1;fontColor=#000000;strokeColor=#B09500;" parent="1" vertex="1">
          <mxGeometry x="-761.5" y="250" width="20" height="20" as="geometry" />
        </mxCell>
        <mxCell id="xHklydh9YZorjnQWgcOz-129" value="" style="shape=waypoint;sketch=0;size=6;pointerEvents=1;points=[];fillColor=#e3c800;resizable=0;rotatable=0;perimeter=centerPerimeter;snapToPoint=1;strokeColor=#B09500;fontColor=#000000;" parent="1" vertex="1">
          <mxGeometry x="-765.25" y="220" width="20" height="20" as="geometry" />
        </mxCell>
        <mxCell id="xHklydh9YZorjnQWgcOz-130" value="" style="shape=waypoint;sketch=0;size=6;pointerEvents=1;points=[];fillColor=#e3c800;resizable=0;rotatable=0;perimeter=centerPerimeter;snapToPoint=1;fontColor=#000000;strokeColor=#B09500;" parent="1" vertex="1">
          <mxGeometry x="-781.5" y="230" width="20" height="20" as="geometry" />
        </mxCell>
        <mxCell id="xHklydh9YZorjnQWgcOz-131" value="" style="ellipse;whiteSpace=wrap;html=1;aspect=fixed;dashed=1;strokeColor=#FF3333;" parent="1" vertex="1">
          <mxGeometry x="-582.75" y="452.69" width="57" height="57" as="geometry" />
        </mxCell>
        <mxCell id="xHklydh9YZorjnQWgcOz-132" value="" style="verticalLabelPosition=bottom;verticalAlign=top;html=1;shape=mxgraph.basic.star;fillColor=#e51400;fontColor=#ffffff;strokeColor=#B20000;" parent="1" vertex="1">
          <mxGeometry x="-560.5" y="474.69" width="12.5" height="13" as="geometry" />
        </mxCell>
        <mxCell id="xHklydh9YZorjnQWgcOz-133" value="" style="shape=waypoint;sketch=0;size=6;pointerEvents=1;points=[];fillColor=#e51400;resizable=0;rotatable=0;perimeter=centerPerimeter;snapToPoint=1;fontColor=#ffffff;strokeColor=#B20000;" parent="1" vertex="1">
          <mxGeometry x="-548" y="474.69" width="20" height="20" as="geometry" />
        </mxCell>
        <mxCell id="xHklydh9YZorjnQWgcOz-134" value="" style="shape=waypoint;sketch=0;size=6;pointerEvents=1;points=[];fillColor=#e51400;resizable=0;rotatable=0;perimeter=centerPerimeter;snapToPoint=1;fontColor=#ffffff;strokeColor=#B20000;" parent="1" vertex="1">
          <mxGeometry x="-560.5" y="489.69" width="20" height="20" as="geometry" />
        </mxCell>
        <mxCell id="xHklydh9YZorjnQWgcOz-135" value="" style="shape=waypoint;sketch=0;size=6;pointerEvents=1;points=[];fillColor=#e51400;resizable=0;rotatable=0;perimeter=centerPerimeter;snapToPoint=1;strokeColor=#B20000;fontColor=#ffffff;" parent="1" vertex="1">
          <mxGeometry x="-568" y="457.69" width="20" height="20" as="geometry" />
        </mxCell>
        <mxCell id="xHklydh9YZorjnQWgcOz-136" value="" style="shape=waypoint;sketch=0;size=6;pointerEvents=1;points=[];fillColor=#e51400;resizable=0;rotatable=0;perimeter=centerPerimeter;snapToPoint=1;fontColor=#ffffff;strokeColor=#B20000;" parent="1" vertex="1">
          <mxGeometry x="-580.5" y="487.69" width="20" height="20" as="geometry" />
        </mxCell>
        <mxCell id="xHklydh9YZorjnQWgcOz-143" value="" style="ellipse;whiteSpace=wrap;html=1;aspect=fixed;dashed=1;strokeColor=#47a9e6;" parent="1" vertex="1">
          <mxGeometry x="-539.25" y="529.69" width="57" height="57" as="geometry" />
        </mxCell>
        <mxCell id="xHklydh9YZorjnQWgcOz-144" value="" style="verticalLabelPosition=bottom;verticalAlign=top;html=1;shape=mxgraph.basic.star;fillColor=#dae8fc;strokeColor=#6c8ebf;" parent="1" vertex="1">
          <mxGeometry x="-517" y="551.69" width="12.5" height="13" as="geometry" />
        </mxCell>
        <mxCell id="xHklydh9YZorjnQWgcOz-145" value="" style="shape=waypoint;sketch=0;size=6;pointerEvents=1;points=[];fillColor=#dae8fc;resizable=0;rotatable=0;perimeter=centerPerimeter;snapToPoint=1;strokeColor=#6c8ebf;" parent="1" vertex="1">
          <mxGeometry x="-506.74999999999994" y="538.19" width="20" height="20" as="geometry" />
        </mxCell>
        <mxCell id="xHklydh9YZorjnQWgcOz-146" value="" style="shape=waypoint;sketch=0;size=6;pointerEvents=1;points=[];fillColor=#dae8fc;resizable=0;rotatable=0;perimeter=centerPerimeter;snapToPoint=1;strokeColor=#6c8ebf;" parent="1" vertex="1">
          <mxGeometry x="-520.75" y="564.69" width="20" height="20" as="geometry" />
        </mxCell>
        <mxCell id="xHklydh9YZorjnQWgcOz-147" value="" style="shape=waypoint;sketch=0;size=6;pointerEvents=1;points=[];fillColor=#dae8fc;resizable=0;rotatable=0;perimeter=centerPerimeter;snapToPoint=1;strokeColor=#6c8ebf;" parent="1" vertex="1">
          <mxGeometry x="-524.5" y="534.69" width="20" height="20" as="geometry" />
        </mxCell>
        <mxCell id="xHklydh9YZorjnQWgcOz-148" value="" style="shape=waypoint;sketch=0;size=6;pointerEvents=1;points=[];fillColor=#dae8fc;resizable=0;rotatable=0;perimeter=centerPerimeter;snapToPoint=1;strokeColor=#6c8ebf;" parent="1" vertex="1">
          <mxGeometry x="-537" y="564.69" width="20" height="20" as="geometry" />
        </mxCell>
        <mxCell id="xHklydh9YZorjnQWgcOz-149" value="" style="ellipse;whiteSpace=wrap;html=1;aspect=fixed;dashed=1;strokeColor=#FFD966;" parent="1" vertex="1">
          <mxGeometry x="-485.25" y="462.69" width="57" height="57" as="geometry" />
        </mxCell>
        <mxCell id="xHklydh9YZorjnQWgcOz-150" value="" style="verticalLabelPosition=bottom;verticalAlign=top;html=1;shape=mxgraph.basic.star;fillColor=#ffff88;strokeColor=#36393d;" parent="1" vertex="1">
          <mxGeometry x="-463" y="484.69" width="12.5" height="13" as="geometry" />
        </mxCell>
        <mxCell id="xHklydh9YZorjnQWgcOz-151" value="" style="shape=waypoint;sketch=0;size=6;pointerEvents=1;points=[];fillColor=#e3c800;resizable=0;rotatable=0;perimeter=centerPerimeter;snapToPoint=1;strokeColor=#B09500;fontColor=#000000;" parent="1" vertex="1">
          <mxGeometry x="-450.5" y="484.69" width="20" height="20" as="geometry" />
        </mxCell>
        <mxCell id="xHklydh9YZorjnQWgcOz-152" value="" style="shape=waypoint;sketch=0;size=6;pointerEvents=1;points=[];fillColor=#e3c800;resizable=0;rotatable=0;perimeter=centerPerimeter;snapToPoint=1;fontColor=#000000;strokeColor=#B09500;" parent="1" vertex="1">
          <mxGeometry x="-466.75" y="497.69" width="20" height="20" as="geometry" />
        </mxCell>
        <mxCell id="xHklydh9YZorjnQWgcOz-153" value="" style="shape=waypoint;sketch=0;size=6;pointerEvents=1;points=[];fillColor=#e3c800;resizable=0;rotatable=0;perimeter=centerPerimeter;snapToPoint=1;strokeColor=#B09500;fontColor=#000000;" parent="1" vertex="1">
          <mxGeometry x="-470.5" y="467.69" width="20" height="20" as="geometry" />
        </mxCell>
        <mxCell id="xHklydh9YZorjnQWgcOz-154" value="" style="shape=waypoint;sketch=0;size=6;pointerEvents=1;points=[];fillColor=#e3c800;resizable=0;rotatable=0;perimeter=centerPerimeter;snapToPoint=1;fontColor=#000000;strokeColor=#B09500;" parent="1" vertex="1">
          <mxGeometry x="-486.75" y="477.69" width="20" height="20" as="geometry" />
        </mxCell>
        <mxCell id="xHklydh9YZorjnQWgcOz-156" value="人" style="text;html=1;align=center;verticalAlign=middle;resizable=0;points=[];autosize=1;strokeColor=none;fillColor=none;fontSize=8;" parent="1" vertex="1">
          <mxGeometry x="-517" y="584.69" width="30" height="20" as="geometry" />
        </mxCell>
        <mxCell id="xHklydh9YZorjnQWgcOz-158" value="位置" style="text;html=1;align=center;verticalAlign=middle;resizable=0;points=[];autosize=1;strokeColor=none;fillColor=none;fontSize=8;" parent="1" vertex="1">
          <mxGeometry x="-450.5" y="511.19" width="40" height="20" as="geometry" />
        </mxCell>
        <mxCell id="xHklydh9YZorjnQWgcOz-159" value="组织" style="text;html=1;align=center;verticalAlign=middle;resizable=0;points=[];autosize=1;strokeColor=none;fillColor=none;fontSize=8;" parent="1" vertex="1">
          <mxGeometry x="-600.5" y="501.19" width="40" height="20" as="geometry" />
        </mxCell>
        <mxCell id="xHklydh9YZorjnQWgcOz-160" value="距离度量" style="text;html=1;align=center;verticalAlign=middle;resizable=0;points=[];autosize=1;strokeColor=none;fillColor=none;fontSize=8;" parent="1" vertex="1">
          <mxGeometry x="-410.25" y="444.69" width="60" height="20" as="geometry" />
        </mxCell>
        <mxCell id="xHklydh9YZorjnQWgcOz-163" value="C&lt;span style=&quot;font-size: 7.5px;&quot;&gt;3&lt;/span&gt;" style="text;html=1;align=center;verticalAlign=middle;resizable=0;points=[];autosize=1;strokeColor=none;fillColor=none;fontSize=9;" parent="1" vertex="1">
          <mxGeometry x="-463" y="474.69" width="30" height="20" as="geometry" />
        </mxCell>
        <mxCell id="xHklydh9YZorjnQWgcOz-164" value="C&lt;span style=&quot;font-size: 7.5px;&quot;&gt;2&lt;/span&gt;" style="text;html=1;align=center;verticalAlign=middle;resizable=0;points=[];autosize=1;strokeColor=none;fillColor=none;fontSize=9;" parent="1" vertex="1">
          <mxGeometry x="-540.5" y="550.69" width="30" height="20" as="geometry" />
        </mxCell>
        <mxCell id="xHklydh9YZorjnQWgcOz-165" value="" style="shape=waypoint;sketch=0;size=6;pointerEvents=1;points=[];fillColor=none;resizable=0;rotatable=0;perimeter=centerPerimeter;snapToPoint=1;" parent="1" vertex="1">
          <mxGeometry x="-520.75" y="511.19" width="20" height="20" as="geometry" />
        </mxCell>
        <mxCell id="xHklydh9YZorjnQWgcOz-167" value="" style="endArrow=none;html=1;startArrow=classicThin;startFill=1;exitX=1.13;exitY=0.755;exitDx=0;exitDy=0;exitPerimeter=0;curved=1;" parent="1" edge="1">
          <mxGeometry width="50" height="50" relative="1" as="geometry">
            <mxPoint x="-506.74999999999994" y="521.19" as="sourcePoint" />
            <mxPoint x="-395.75" y="549.69" as="targetPoint" />
            <Array as="points">
              <mxPoint x="-455.75" y="549.69" />
            </Array>
          </mxGeometry>
        </mxCell>
        <mxCell id="xHklydh9YZorjnQWgcOz-168" value="测试样本" style="text;html=1;align=center;verticalAlign=middle;resizable=0;points=[];autosize=1;strokeColor=none;fillColor=none;fontSize=10;" parent="1" vertex="1">
          <mxGeometry x="-395.83" y="533.19" width="60" height="30" as="geometry" />
        </mxCell>
        <mxCell id="xHklydh9YZorjnQWgcOz-169" value="" style="endArrow=none;dashed=1;html=1;rounded=0;exitX=0.46;exitY=0.607;exitDx=0;exitDy=0;exitPerimeter=0;" parent="1" source="xHklydh9YZorjnQWgcOz-132" edge="1">
          <mxGeometry width="50" height="50" relative="1" as="geometry">
            <mxPoint x="-545.75" y="489.69" as="sourcePoint" />
            <mxPoint x="-510.49999999999994" y="519.69" as="targetPoint" />
          </mxGeometry>
        </mxCell>
        <mxCell id="xHklydh9YZorjnQWgcOz-162" value="C&lt;sub style=&quot;font-size: 9px;&quot;&gt;1&lt;/sub&gt;" style="text;html=1;align=center;verticalAlign=middle;resizable=0;points=[];autosize=1;strokeColor=none;fillColor=none;fontSize=9;" parent="1" vertex="1">
          <mxGeometry x="-585.75" y="467" width="40" height="30" as="geometry" />
        </mxCell>
        <mxCell id="xHklydh9YZorjnQWgcOz-173" value="" style="endArrow=none;dashed=1;html=1;rounded=0;exitX=0.992;exitY=0.45;exitDx=0;exitDy=0;exitPerimeter=0;" parent="1" source="xHklydh9YZorjnQWgcOz-164" target="xHklydh9YZorjnQWgcOz-165" edge="1">
          <mxGeometry width="50" height="50" relative="1" as="geometry">
            <mxPoint x="-695.75" y="449.69" as="sourcePoint" />
            <mxPoint x="-645.75" y="399.69" as="targetPoint" />
          </mxGeometry>
        </mxCell>
        <mxCell id="xHklydh9YZorjnQWgcOz-174" value="" style="endArrow=none;dashed=1;html=1;rounded=0;entryX=0.676;entryY=0.532;entryDx=0;entryDy=0;entryPerimeter=0;exitX=0.313;exitY=0.59;exitDx=0;exitDy=0;exitPerimeter=0;" parent="1" source="xHklydh9YZorjnQWgcOz-150" target="xHklydh9YZorjnQWgcOz-165" edge="1">
          <mxGeometry width="50" height="50" relative="1" as="geometry">
            <mxPoint x="-455.75" y="489.69" as="sourcePoint" />
            <mxPoint x="-655.75" y="409.69" as="targetPoint" />
          </mxGeometry>
        </mxCell>
        <mxCell id="xHklydh9YZorjnQWgcOz-175" value="" style="endArrow=classic;html=1;rounded=0;" parent="1" edge="1">
          <mxGeometry width="50" height="50" relative="1" as="geometry">
            <mxPoint x="-683.25" y="494.45" as="sourcePoint" />
            <mxPoint x="-663.25" y="494.45" as="targetPoint" />
          </mxGeometry>
        </mxCell>
        <mxCell id="xHklydh9YZorjnQWgcOz-177" value="x" style="text;html=1;align=center;verticalAlign=middle;resizable=0;points=[];autosize=1;strokeColor=none;fillColor=none;" parent="1" vertex="1">
          <mxGeometry x="-534.5" y="506.19" width="30" height="30" as="geometry" />
        </mxCell>
        <mxCell id="xHklydh9YZorjnQWgcOz-178" value="PER" style="text;html=1;align=center;verticalAlign=middle;resizable=0;points=[];autosize=1;strokeColor=none;fillColor=none;fontSize=10;" parent="1" vertex="1">
          <mxGeometry x="-325.83" y="402" width="40" height="30" as="geometry" />
        </mxCell>
        <mxCell id="xHklydh9YZorjnQWgcOz-180" value="C&lt;span style=&quot;font-size: 7.5px;&quot;&gt;1&lt;/span&gt;" style="text;html=1;align=center;verticalAlign=middle;resizable=0;points=[];autosize=1;strokeColor=none;fillColor=none;fontSize=9;" parent="1" vertex="1">
          <mxGeometry x="-334.83" y="494.69" width="30" height="20" as="geometry" />
        </mxCell>
        <mxCell id="xHklydh9YZorjnQWgcOz-181" value="C&lt;span style=&quot;font-size: 7.5px;&quot;&gt;2&lt;/span&gt;" style="text;html=1;align=center;verticalAlign=middle;resizable=0;points=[];autosize=1;strokeColor=none;fillColor=none;fontSize=9;" parent="1" vertex="1">
          <mxGeometry x="-320.83" y="494.69" width="30" height="20" as="geometry" />
        </mxCell>
        <mxCell id="xHklydh9YZorjnQWgcOz-183" value="C&lt;span style=&quot;font-size: 7.5px;&quot;&gt;3&lt;/span&gt;" style="text;html=1;align=center;verticalAlign=middle;resizable=0;points=[];autosize=1;strokeColor=none;fillColor=none;fontSize=9;" parent="1" vertex="1">
          <mxGeometry x="-305.83" y="494.69" width="30" height="20" as="geometry" />
        </mxCell>
        <mxCell id="xHklydh9YZorjnQWgcOz-185" value="C&lt;span style=&quot;font-size: 7.5px;&quot;&gt;4&lt;/span&gt;" style="text;html=1;align=center;verticalAlign=middle;resizable=0;points=[];autosize=1;strokeColor=none;fillColor=none;fontSize=9;" parent="1" vertex="1">
          <mxGeometry x="-291.83" y="494.69" width="30" height="20" as="geometry" />
        </mxCell>
        <mxCell id="TWQ7pLuVDrdphybZ6b9E-1" value="&lt;p style=&quot;margin-top: 0pt; margin-bottom: 0pt; margin-left: 0in; direction: ltr; unicode-bidi: embed; font-size: 20px;&quot;&gt;&lt;font color=&quot;#3399ff&quot;&gt;Barack&lt;/font&gt; &lt;font color=&quot;#3399ff&quot;&gt;Obama&lt;/font&gt; was born in 1961 .&lt;/p&gt;" style="text;html=1;align=center;verticalAlign=middle;resizable=0;points=[];autosize=1;strokeColor=none;fillColor=none;fontSize=20;" vertex="1" parent="1">
          <mxGeometry x="-650.9200000000001" y="45.5" width="330" height="40" as="geometry" />
        </mxCell>
        <mxCell id="TWQ7pLuVDrdphybZ6b9E-2" value="&lt;p style=&quot;language:zh-CN;margin-top:0pt;margin-bottom:0pt;margin-left:0in;&lt;br/&gt;text-align:left;direction:ltr;unicode-bidi:embed;mso-line-break-override:none;&lt;br/&gt;word-break:normal;punctuation-wrap:hanging&quot;&gt;&lt;font color=&quot;#ff9999&quot;&gt;Google&lt;/font&gt; is located in &lt;font color=&quot;#ffb570&quot;&gt;California&lt;/font&gt; .&lt;/p&gt;" style="text;html=1;align=center;verticalAlign=middle;resizable=0;points=[];autosize=1;strokeColor=none;fillColor=none;fontSize=20;" vertex="1" parent="1">
          <mxGeometry x="-648.4200000000001" y="112.5" width="300" height="40" as="geometry" />
        </mxCell>
        <mxCell id="TWQ7pLuVDrdphybZ6b9E-3" value="B-PER" style="rounded=0;whiteSpace=wrap;html=1;fillColor=#dae8fc;strokeColor=#6c8ebf;" vertex="1" parent="1">
          <mxGeometry x="-636.6700000000001" y="86.5" width="59.75" height="29" as="geometry" />
        </mxCell>
        <mxCell id="TWQ7pLuVDrdphybZ6b9E-4" value="I-PER" style="rounded=0;whiteSpace=wrap;html=1;fillColor=#dae8fc;strokeColor=#6c8ebf;" vertex="1" parent="1">
          <mxGeometry x="-565.9200000000001" y="86.5" width="59.75" height="29" as="geometry" />
        </mxCell>
        <mxCell id="TWQ7pLuVDrdphybZ6b9E-12" value="O" style="rounded=0;whiteSpace=wrap;html=1;strokeColor=none;" vertex="1" parent="1">
          <mxGeometry x="-573.9200000000001" y="151.5" width="33.25" height="29" as="geometry" />
        </mxCell>
        <mxCell id="TWQ7pLuVDrdphybZ6b9E-5" value="O" style="rounded=0;whiteSpace=wrap;html=1;strokeColor=none;" vertex="1" parent="1">
          <mxGeometry x="-497.79" y="86.5" width="33.25" height="29" as="geometry" />
        </mxCell>
        <mxCell id="TWQ7pLuVDrdphybZ6b9E-7" value="O" style="rounded=0;whiteSpace=wrap;html=1;strokeColor=none;" vertex="1" parent="1">
          <mxGeometry x="-455.17" y="86.5" width="33.25" height="29" as="geometry" />
        </mxCell>
        <mxCell id="TWQ7pLuVDrdphybZ6b9E-8" value="O" style="rounded=0;whiteSpace=wrap;html=1;strokeColor=none;" vertex="1" parent="1">
          <mxGeometry x="-415.17" y="86.5" width="18.25" height="29" as="geometry" />
        </mxCell>
        <mxCell id="TWQ7pLuVDrdphybZ6b9E-9" value="O" style="rounded=0;whiteSpace=wrap;html=1;strokeColor=none;" vertex="1" parent="1">
          <mxGeometry x="-385.67" y="86.5" width="33.25" height="29" as="geometry" />
        </mxCell>
        <mxCell id="TWQ7pLuVDrdphybZ6b9E-10" value="B-ORG" style="rounded=0;whiteSpace=wrap;html=1;fillColor=#f8cecc;strokeColor=#b85450;" vertex="1" parent="1">
          <mxGeometry x="-630.6700000000001" y="151.5" width="59.75" height="29" as="geometry" />
        </mxCell>
        <mxCell id="TWQ7pLuVDrdphybZ6b9E-11" value="B-LOC" style="rounded=0;whiteSpace=wrap;html=1;fillColor=#ffe6cc;strokeColor=#d79b00;" vertex="1" parent="1">
          <mxGeometry x="-437.42" y="152.5" width="59.75" height="29" as="geometry" />
        </mxCell>
        <mxCell id="TWQ7pLuVDrdphybZ6b9E-13" value="O" style="rounded=0;whiteSpace=wrap;html=1;strokeColor=none;" vertex="1" parent="1">
          <mxGeometry x="-530.1700000000001" y="151.5" width="33.25" height="29" as="geometry" />
        </mxCell>
        <mxCell id="TWQ7pLuVDrdphybZ6b9E-14" value="O" style="rounded=0;whiteSpace=wrap;html=1;strokeColor=none;" vertex="1" parent="1">
          <mxGeometry x="-481.79" y="151.5" width="33.25" height="29" as="geometry" />
        </mxCell>
        <mxCell id="TWQ7pLuVDrdphybZ6b9E-18" value="" style="rounded=1;whiteSpace=wrap;html=1;dashed=1;" vertex="1" parent="1">
          <mxGeometry x="-531.79" y="205.5" width="198.25" height="60" as="geometry" />
        </mxCell>
        <mxCell id="TWQ7pLuVDrdphybZ6b9E-15" value="B：begin&lt;span style=&quot;white-space: pre; font-size: 9px;&quot;&gt;&#x9;&lt;/span&gt;&lt;span style=&quot;white-space: pre; font-size: 9px;&quot;&gt;&#x9;&lt;/span&gt;I：inside&lt;span style=&quot;white-space: pre; font-size: 9px;&quot;&gt;&#x9;&lt;/span&gt;&lt;span style=&quot;white-space: pre; font-size: 9px;&quot;&gt;&#x9;&lt;/span&gt;O：other" style="text;html=1;align=center;verticalAlign=middle;resizable=0;points=[];autosize=1;strokeColor=none;fillColor=none;fontSize=9;" vertex="1" parent="1">
          <mxGeometry x="-525.1700000000001" y="225.5" width="180" height="20" as="geometry" />
        </mxCell>
        <mxCell id="TWQ7pLuVDrdphybZ6b9E-16" value="PER：人&lt;span style=&quot;white-space: pre; font-size: 9px;&quot;&gt;&#x9;&lt;/span&gt;&lt;span style=&quot;white-space: pre; font-size: 9px;&quot;&gt;&#x9;&lt;/span&gt;LOC：位置&lt;span style=&quot;white-space: pre; font-size: 9px;&quot;&gt;&#x9;&lt;/span&gt;ORG：组织" style="text;html=1;align=center;verticalAlign=middle;resizable=0;points=[];autosize=1;strokeColor=none;fillColor=none;fontSize=9;" vertex="1" parent="1">
          <mxGeometry x="-525.1700000000001" y="245.5" width="190" height="20" as="geometry" />
        </mxCell>
        <mxCell id="TWQ7pLuVDrdphybZ6b9E-19" value="说明" style="text;html=1;align=center;verticalAlign=middle;resizable=0;points=[];autosize=1;strokeColor=none;fillColor=none;fontSize=9;" vertex="1" parent="1">
          <mxGeometry x="-458.54" y="205.5" width="40" height="20" as="geometry" />
        </mxCell>
      </root>
    </mxGraphModel>
  </diagram>
</mxfile>
